
<svg width="400px" height="200px" viewBox="0 0 400 200" version="1.1" xmlns="http://www.w3.org/2000/svg" xmlns:xlink="http://www.w3.org/1999/xlink">
    <!-- Generator: Sketch 40.1 (33804) - http://www.bohemiancoding.com/sketch -->
    <desc>Created with Sketch.</desc>
    <defs></defs>
    <polyline id="Shape" stroke="#00AEEF" stroke-width="3" fill="none" points="1.5 198.171 1.5 1.583 398.167 1.583 398.167 198.171"></polyline>
    <polygon id="Shape" stroke="none" fill="#00BBF1" fill-rule="evenodd" points="138.982 25.004 138.982 35.44 145.222 35.44 145.222 37.807 136.166 37.807 136.166 25.004"></polygon>
    <polygon id="Shape" stroke="none" fill="#00BBF1" fill-rule="evenodd" points="151.408 25.004 151.408 37.807 148.593 37.807 148.593 25.004"></polygon>
    <polygon id="Shape" stroke="none" fill="#00BBF1" fill-rule="evenodd" points="158.473 25.004 163.816 33.593 163.853 33.593 163.853 25.004 166.488 25.004 166.488 37.807 163.674 37.807 158.348 29.235 158.312 29.235 158.312 37.807 155.677 37.807 155.677 25.004"></polygon>
    <polygon id="Shape" stroke="none" fill="#00BBF1" fill-rule="evenodd" points="173.552 25.004 173.552 30.312 178.555 25.004 182.07 25.004 177.067 30.061 182.554 37.807 179.022 37.807 175.166 32.051 173.553 33.683 173.553 37.807 170.739 37.807 170.739 25.004"></polygon>
    <polygon id="Shape" stroke="none" fill="#00BBF1" fill-rule="evenodd" points="236.322 25.004 236.322 35.44 242.562 35.44 242.562 37.807 233.506 37.807 233.506 25.004"></polygon>
    <polygon id="Shape" stroke="none" fill="#00BBF1" fill-rule="evenodd" points="248.749 25.004 248.749 37.807 245.932 37.807 245.932 25.004"></polygon>
    <polygon id="Shape" stroke="none" fill="#00BBF1" fill-rule="evenodd" points="255.812 25.004 261.157 33.593 261.192 33.593 261.192 25.004 263.828 25.004 263.828 37.807 261.014 37.807 255.689 29.235 255.652 29.235 255.652 37.807 253.017 37.807 253.017 25.004"></polygon>
    <polygon id="Shape" stroke="none" fill="#00BBF1" fill-rule="evenodd" points="270.893 25.004 270.893 30.312 275.896 25.004 279.412 25.004 274.408 30.061 279.895 37.807 276.363 37.807 272.508 32.051 270.894 33.683 270.894 37.807 268.08 37.807 268.08 25.004"></polygon>
    <polygon id="Shape" stroke="none" fill="#00BBF1" fill-rule="evenodd" points="320.854 25.004 320.854 35.44 327.094 35.44 327.094 37.807 318.038 37.807 318.038 25.004"></polygon>
    <polygon id="Shape" stroke="none" fill="#00BBF1" fill-rule="evenodd" points="333.281 25.004 333.281 37.807 330.465 37.807 330.465 25.004"></polygon>
    <polygon id="Shape" stroke="none" fill="#00BBF1" fill-rule="evenodd" points="340.346 25.004 345.69 33.593 345.725 33.593 345.725 25.004 348.361 25.004 348.361 37.807 345.547 37.807 340.222 29.235 340.186 29.235 340.186 37.807 337.55 37.807 337.55 25.004"></polygon>
    <polygon id="Shape" stroke="none" fill="#00BBF1" fill-rule="evenodd" points="355.425 25.004 355.425 30.312 360.428 25.004 363.944 25.004 358.94 30.061 364.427 37.807 360.895 37.807 357.04 32.051 355.426 33.683 355.426 37.807 352.612 37.807 352.612 25.004"></polygon>
</svg>