
<svg width="398px" height="199px" viewBox="-1 -1 398 199" version="1.1" xmlns="http://www.w3.org/2000/svg" xmlns:xlink="http://www.w3.org/1999/xlink">
    <!-- Generator: Sketch 40.1 (33804) - http://www.bohemiancoding.com/sketch -->
    <desc>Created with Sketch.</desc>
    <defs></defs>
    <path d="M0.5,5.496 C0.5,2.736 2.744,0.5 5.502,0.5 L180.498,0.5 C183.261,0.5 185.5,2.743 185.5,5.496 L185.5,30.504 C185.5,33.264 183.256,35.5 180.498,35.5 L5.502,35.5 C2.739,35.5 0.5,33.257 0.5,30.504 L0.5,5.496 L0.5,5.496 Z" id="Shape" stroke="none" fill="none"></path>
    <path d="M0,5.496 L0,30.504 C0,33.535 2.465,36 5.502,36 L180.498,36 C183.533,36 186,33.538 186,30.504 L186,5.496 C186,2.465 183.535,0 180.498,0 L5.502,0 C2.467,0 0,2.462 0,5.496 L0,5.496 Z M1,5.496 C1,3.015 3.019,1 5.502,1 L180.498,1 C182.982,1 185,3.017 185,5.496 L185,30.504 C185,32.985 182.981,35 180.498,35 L5.502,35 C3.018,35 1,32.983 1,30.504 L1,5.496 L1,5.496 Z" id="Shape" stroke="none" fill="none"></path>
    <path d="M0.5,5.496 C0.5,2.736 2.744,0.5 5.502,0.5 L180.498,0.5 C183.261,0.5 185.5,2.742 185.5,5.496 L185.5,30.504 C185.5,33.264 183.256,35.5 180.498,35.5 L5.502,35.5 C2.739,35.5 0.5,33.258 0.5,30.504 L0.5,5.496 L0.5,5.496 Z" id="Shape" stroke="#00AEEF" stroke-width="2" fill="none"></path>
    <path d="M0.5,5.496 C0.5,2.736 2.744,0.5 5.502,0.5 L180.498,0.5 C183.261,0.5 185.5,2.743 185.5,5.496 L185.5,30.504 C185.5,33.264 183.256,35.5 180.498,35.5 L5.502,35.5 C2.739,35.5 0.5,33.257 0.5,30.504 L0.5,5.496 L0.5,5.496 Z" id="Shape" stroke="none" fill="none"></path>
    <polygon id="Shape" stroke="none" fill="#00BCF2" fill-rule="evenodd" points="15.325 11.362 20.391 19.505 20.425 19.505 20.425 11.362 22.924 11.362 22.924 23.5 20.255 23.5 15.206 15.374 15.172 15.374 15.172 23.5 12.673 23.5 12.673 11.362"></polygon>
    <path d="M24.913,17.414 C24.947,16.848 25.089,16.377 25.338,16.003 C25.587,15.629 25.904,15.329 26.29,15.102 C26.675,14.875 27.109,14.714 27.591,14.618 C28.072,14.522 28.557,14.473 29.044,14.473 C29.486,14.473 29.934,14.504 30.387,14.567 C30.84,14.629 31.254,14.752 31.628,14.932 C32.002,15.114 32.308,15.366 32.546,15.689 C32.784,16.012 32.903,16.44 32.903,16.972 L32.903,21.545 C32.903,21.941 32.925,22.321 32.971,22.684 C33.016,23.047 33.096,23.319 33.209,23.5 L30.761,23.5 C30.716,23.364 30.678,23.226 30.651,23.084 C30.622,22.942 30.603,22.798 30.591,22.65 C30.205,23.046 29.752,23.324 29.231,23.483 C28.71,23.641 28.177,23.72 27.633,23.72 C27.214,23.72 26.822,23.669 26.46,23.568 C26.097,23.465 25.78,23.307 25.508,23.091 C25.236,22.876 25.023,22.604 24.87,22.276 C24.717,21.947 24.641,21.556 24.641,21.102 C24.641,20.604 24.729,20.193 24.905,19.87 C25.08,19.548 25.307,19.29 25.585,19.097 C25.863,18.905 26.18,18.76 26.537,18.663 C26.894,18.567 27.254,18.491 27.617,18.434 C27.979,18.377 28.337,18.332 28.688,18.298 C29.039,18.264 29.351,18.213 29.623,18.145 C29.895,18.078 30.11,17.978 30.269,17.848 C30.428,17.718 30.501,17.528 30.49,17.279 C30.49,17.018 30.448,16.811 30.363,16.658 C30.278,16.506 30.164,16.387 30.023,16.302 C29.882,16.217 29.717,16.16 29.53,16.132 C29.343,16.104 29.141,16.089 28.926,16.089 C28.45,16.089 28.076,16.192 27.804,16.395 C27.532,16.599 27.373,16.94 27.328,17.416 L24.913,17.416 L24.913,17.414 Z M30.489,19.199 C30.387,19.29 30.26,19.36 30.106,19.411 C29.953,19.463 29.789,19.505 29.613,19.539 C29.437,19.573 29.253,19.601 29.06,19.624 C28.867,19.647 28.675,19.675 28.482,19.709 C28.3,19.743 28.122,19.788 27.946,19.845 C27.77,19.902 27.617,19.979 27.487,20.074 C27.357,20.171 27.252,20.293 27.173,20.44 C27.093,20.587 27.054,20.774 27.054,21.001 C27.054,21.217 27.094,21.397 27.173,21.545 C27.252,21.692 27.36,21.809 27.496,21.894 C27.632,21.979 27.79,22.039 27.972,22.073 C28.153,22.107 28.34,22.124 28.533,22.124 C29.009,22.124 29.377,22.045 29.638,21.886 C29.899,21.728 30.091,21.537 30.216,21.317 C30.341,21.096 30.417,20.873 30.445,20.645 C30.473,20.418 30.487,20.238 30.487,20.101 L30.487,19.199 L30.489,19.199 Z" id="Shape" stroke="none" fill="#00BCF2" fill-rule="evenodd"></path>
    <path d="M37.119,14.711 L37.119,15.901 L37.153,15.901 C37.47,15.448 37.853,15.096 38.3,14.846 C38.748,14.597 39.26,14.472 39.839,14.472 C40.394,14.472 40.901,14.58 41.36,14.795 C41.819,15.011 42.168,15.39 42.405,15.934 C42.666,15.549 43.02,15.209 43.467,14.914 C43.914,14.619 44.445,14.472 45.057,14.472 C45.521,14.472 45.952,14.53 46.349,14.642 C46.745,14.756 47.085,14.937 47.369,15.186 C47.652,15.436 47.873,15.762 48.032,16.164 C48.19,16.567 48.27,17.052 48.27,17.618 L48.27,23.5 L45.856,23.5 L45.856,18.519 C45.856,18.225 45.845,17.948 45.822,17.686 C45.8,17.426 45.737,17.2 45.635,17.006 C45.533,16.814 45.383,16.66 45.185,16.547 C44.986,16.434 44.717,16.377 44.377,16.377 C44.037,16.377 43.762,16.442 43.553,16.572 C43.343,16.703 43.179,16.873 43.06,17.082 C42.941,17.292 42.861,17.53 42.822,17.797 C42.782,18.063 42.763,18.332 42.763,18.604 L42.763,23.5 L40.349,23.5 L40.349,18.57 C40.349,18.309 40.343,18.051 40.332,17.797 C40.321,17.541 40.272,17.307 40.187,17.091 C40.102,16.876 39.96,16.703 39.762,16.572 C39.563,16.442 39.271,16.377 38.887,16.377 C38.773,16.377 38.623,16.402 38.436,16.453 C38.249,16.505 38.067,16.6 37.892,16.742 C37.716,16.885 37.566,17.088 37.441,17.354 C37.316,17.621 37.254,17.969 37.254,18.4 L37.254,23.5 L34.84,23.5 L34.84,14.711 L37.119,14.711 L37.119,14.711 Z" id="Shape" stroke="none" fill="#00BCF2" fill-rule="evenodd"></path>
    <path d="M52.759,21.392 C53.122,21.744 53.643,21.919 54.323,21.919 C54.81,21.919 55.23,21.797 55.581,21.554 C55.932,21.31 56.147,21.052 56.227,20.781 L58.352,20.781 C58.012,21.835 57.49,22.589 56.788,23.042 C56.086,23.495 55.235,23.722 54.238,23.722 C53.547,23.722 52.923,23.612 52.368,23.391 C51.813,23.17 51.342,22.855 50.957,22.448 C50.571,22.04 50.274,21.552 50.064,20.986 C49.854,20.419 49.75,19.796 49.75,19.116 C49.75,18.459 49.857,17.846 50.073,17.28 C50.288,16.713 50.594,16.223 50.991,15.809 C51.387,15.395 51.861,15.07 52.41,14.831 C52.959,14.592 53.569,14.474 54.238,14.474 C54.986,14.474 55.637,14.619 56.193,14.908 C56.748,15.197 57.204,15.586 57.562,16.073 C57.919,16.56 58.176,17.116 58.335,17.739 C58.494,18.362 58.55,19.013 58.505,19.694 L52.164,19.694 C52.198,20.474 52.396,21.041 52.759,21.392 L52.759,21.392 Z M55.487,16.768 C55.198,16.452 54.758,16.292 54.17,16.292 C53.784,16.292 53.464,16.357 53.21,16.487 C52.955,16.618 52.751,16.779 52.598,16.971 C52.445,17.164 52.337,17.368 52.275,17.583 C52.213,17.799 52.175,17.991 52.165,18.161 L56.092,18.161 C55.978,17.55 55.776,17.085 55.487,16.768 L55.487,16.768 Z" id="Shape" stroke="none" fill="#00BCF2" fill-rule="evenodd"></path>
    <path d="M210.5,5.496 C210.5,2.736 212.744,0.5 215.502,0.5 L390.498,0.5 C393.261,0.5 395.5,2.743 395.5,5.496 L395.5,30.504 C395.5,33.264 393.256,35.5 390.498,35.5 L215.502,35.5 C212.739,35.5 210.5,33.257 210.5,30.504 L210.5,5.496 L210.5,5.496 Z" id="Shape" stroke="none" fill="none"></path>
    <path d="M210,5.496 L210,30.504 C210,33.535 212.465,36 215.502,36 L390.498,36 C393.533,36 396,33.538 396,30.504 L396,5.496 C396,2.465 393.534,0 390.498,0 L215.502,0 C212.467,0 210,2.462 210,5.496 L210,5.496 Z M211,5.496 C211,3.015 213.019,1 215.502,1 L390.498,1 C392.982,1 395,3.017 395,5.496 L395,30.504 C395,32.985 392.981,35 390.498,35 L215.502,35 C213.018,35 211,32.983 211,30.504 L211,5.496 L211,5.496 Z" id="Shape" stroke="none" fill="none"></path>
    <path d="M210.5,5.496 C210.5,2.736 212.744,0.5 215.502,0.5 L390.498,0.5 C393.261,0.5 395.5,2.742 395.5,5.496 L395.5,30.504 C395.5,33.264 393.256,35.5 390.498,35.5 L215.502,35.5 C212.739,35.5 210.5,33.258 210.5,30.504 L210.5,5.496 L210.5,5.496 Z" id="Shape" stroke="#00AEEF" stroke-width="2" fill="none"></path>
    <path d="M210.5,5.496 C210.5,2.736 212.744,0.5 215.502,0.5 L390.498,0.5 C393.261,0.5 395.5,2.743 395.5,5.496 L395.5,30.504 C395.5,33.264 393.256,35.5 390.498,35.5 L215.502,35.5 C212.739,35.5 210.5,33.257 210.5,30.504 L210.5,5.496 L210.5,5.496 Z" id="Shape" stroke="none" fill="none"></path>
    <polygon id="Shape" stroke="none" fill="#00BCF2" fill-rule="evenodd" points="231.751 11.362 231.751 13.606 225.342 13.606 225.342 16.207 231.225 16.207 231.225 18.281 225.342 18.281 225.342 21.256 231.887 21.256 231.887 23.5 222.673 23.5 222.673 11.362"></polygon>
    <path d="M235.78,14.711 L235.78,15.901 L235.814,15.901 C236.13,15.448 236.513,15.096 236.96,14.846 C237.408,14.597 237.921,14.472 238.499,14.472 C239.054,14.472 239.561,14.58 240.02,14.795 C240.479,15.011 240.828,15.39 241.065,15.934 C241.327,15.549 241.68,15.209 242.127,14.914 C242.575,14.619 243.106,14.472 243.717,14.472 C244.182,14.472 244.613,14.53 245.01,14.642 C245.406,14.756 245.746,14.937 246.03,15.186 C246.313,15.436 246.534,15.762 246.693,16.164 C246.851,16.567 246.93,17.052 246.93,17.618 L246.93,23.5 L244.516,23.5 L244.516,18.519 C244.516,18.225 244.505,17.948 244.483,17.686 C244.46,17.426 244.397,17.2 244.295,17.006 C244.193,16.814 244.043,16.66 243.845,16.547 C243.647,16.434 243.377,16.377 243.037,16.377 C242.697,16.377 242.422,16.442 242.213,16.572 C242.003,16.703 241.839,16.873 241.72,17.082 C241.601,17.292 241.522,17.53 241.482,17.797 C241.442,18.063 241.422,18.332 241.422,18.604 L241.422,23.5 L239.008,23.5 L239.008,18.57 C239.008,18.309 239.002,18.051 238.991,17.797 C238.98,17.541 238.931,17.307 238.846,17.091 C238.761,16.876 238.618,16.703 238.421,16.572 C238.222,16.442 237.931,16.377 237.546,16.377 C237.432,16.377 237.282,16.402 237.095,16.453 C236.907,16.505 236.726,16.6 236.551,16.742 C236.375,16.885 236.225,17.088 236.101,17.354 C235.976,17.621 235.913,17.969 235.913,18.4 L235.913,23.5 L233.499,23.5 L233.499,14.711 L235.78,14.711 L235.78,14.711 Z" id="Shape" stroke="none" fill="#00BCF2" fill-rule="evenodd"></path>
    <path d="M248.734,17.414 C248.767,16.848 248.91,16.377 249.159,16.003 C249.408,15.629 249.725,15.329 250.111,15.102 C250.496,14.875 250.929,14.714 251.412,14.618 C251.892,14.522 252.377,14.473 252.865,14.473 C253.306,14.473 253.754,14.504 254.208,14.567 C254.661,14.629 255.075,14.752 255.449,14.932 C255.822,15.114 256.129,15.366 256.367,15.689 C256.605,16.012 256.724,16.44 256.724,16.972 L256.724,21.545 C256.724,21.941 256.745,22.321 256.791,22.684 C256.836,23.047 256.915,23.319 257.028,23.5 L254.581,23.5 C254.536,23.364 254.499,23.226 254.471,23.084 C254.443,22.942 254.423,22.798 254.411,22.65 C254.025,23.046 253.572,23.324 253.051,23.483 C252.53,23.641 251.997,23.72 251.453,23.72 C251.034,23.72 250.642,23.669 250.28,23.568 C249.917,23.465 249.6,23.307 249.328,23.091 C249.056,22.876 248.843,22.604 248.69,22.276 C248.538,21.947 248.461,21.556 248.461,21.102 C248.461,20.604 248.549,20.193 248.725,19.87 C248.9,19.548 249.126,19.29 249.405,19.097 C249.683,18.905 250,18.76 250.357,18.663 C250.714,18.567 251.074,18.491 251.437,18.434 C251.798,18.377 252.156,18.332 252.507,18.298 C252.858,18.264 253.17,18.213 253.443,18.145 C253.714,18.078 253.929,17.978 254.089,17.848 C254.249,17.718 254.321,17.528 254.311,17.279 C254.311,17.018 254.268,16.811 254.183,16.658 C254.098,16.506 253.985,16.387 253.842,16.302 C253.701,16.217 253.537,16.16 253.35,16.132 C253.163,16.104 252.961,16.089 252.746,16.089 C252.269,16.089 251.896,16.192 251.624,16.395 C251.352,16.599 251.193,16.94 251.148,17.416 L248.734,17.416 L248.734,17.414 Z M254.311,19.199 C254.208,19.29 254.081,19.36 253.928,19.411 C253.775,19.463 253.61,19.505 253.435,19.539 C253.259,19.573 253.075,19.601 252.882,19.624 C252.689,19.647 252.496,19.675 252.305,19.709 C252.123,19.743 251.944,19.788 251.769,19.845 C251.593,19.902 251.44,19.979 251.31,20.074 C251.18,20.171 251.075,20.293 250.996,20.44 C250.917,20.587 250.877,20.774 250.877,21.001 C250.877,21.217 250.917,21.397 250.996,21.545 C251.075,21.693 251.183,21.809 251.319,21.894 C251.455,21.979 251.613,22.039 251.795,22.073 C251.976,22.107 252.163,22.124 252.357,22.124 C252.833,22.124 253.201,22.045 253.461,21.886 C253.722,21.728 253.914,21.537 254.039,21.317 C254.163,21.096 254.24,20.873 254.268,20.645 C254.295,20.418 254.311,20.238 254.311,20.101 L254.311,19.199 L254.311,19.199 Z" id="Shape" stroke="none" fill="#00BCF2" fill-rule="evenodd"></path>
    <path d="M258.662,13.351 L258.662,11.363 L261.076,11.363 L261.076,13.351 L258.662,13.351 L258.662,13.351 Z M261.076,14.711 L261.076,23.5 L258.662,23.5 L258.662,14.711 L261.076,14.711 L261.076,14.711 Z" id="Shape" stroke="none" fill="#00BCF2" fill-rule="evenodd"></path>
    <polygon id="Shape" stroke="none" fill="#00BCF2" fill-rule="evenodd" points="265.461 11.362 265.461 23.5 263.047 23.5 263.047 11.362"></polygon>
    <path d="M0.5,60.493 C0.5,57.735 2.731,55.5 5.496,55.5 L390.504,55.5 C393.263,55.5 395.5,57.729 395.5,60.493 L395.5,191.507 C395.5,194.265 393.269,196.5 390.504,196.5 L5.496,196.5 C2.736,196.5 0.5,194.271 0.5,191.507 L0.5,60.493 L0.5,60.493 Z" id="Shape" stroke="none" fill="none"></path>
    <path d="M0,60.493 L0,191.507 C0,194.545 2.459,197 5.496,197 L390.504,197 C393.543,197 396,194.542 396,191.507 L396,60.493 C396,57.455 393.541,55 390.504,55 L5.496,55 C2.457,55 0,57.458 0,60.493 L0,60.493 Z M1,60.493 C1,58.01 3.01,56 5.496,56 L390.504,56 C392.989,56 395,58.008 395,60.493 L395,191.507 C395,193.99 392.99,196 390.504,196 L5.496,196 C3.011,196 1,193.992 1,191.507 L1,60.493 L1,60.493 Z" id="Shape" stroke="none" fill="none"></path>
    <path d="M0.5,60.493 C0.5,57.735 2.731,55.5 5.496,55.5 L390.504,55.5 C393.263,55.5 395.5,57.729 395.5,60.493 L395.5,191.507 C395.5,194.265 393.269,196.5 390.504,196.5 L5.496,196.5 C2.736,196.5 0.5,194.271 0.5,191.507 L0.5,60.493 L0.5,60.493 Z" id="Shape" stroke="#00AEEF" stroke-width="2" fill="none"></path>
    <path d="M0.5,60.493 C0.5,57.735 2.731,55.5 5.496,55.5 L390.504,55.5 C393.263,55.5 395.5,57.729 395.5,60.493 L395.5,191.507 C395.5,194.265 393.269,196.5 390.504,196.5 L5.496,196.5 C2.736,196.5 0.5,194.271 0.5,191.507 L0.5,60.493 L0.5,60.493 Z" id="Shape" stroke="none" fill="none"></path>
    <polygon id="Shape" stroke="none" fill="#00BCF2" fill-rule="evenodd" points="16.43 66.362 19.269 74.709 19.303 74.709 21.989 66.362 25.746 66.362 25.746 78.5 23.247 78.5 23.247 69.898 23.213 69.898 20.238 78.5 18.181 78.5 15.206 69.983 15.172 69.983 15.172 78.5 12.673 78.5 12.673 66.362"></polygon>
    <path d="M30.421,76.392 C30.784,76.744 31.305,76.919 31.985,76.919 C32.472,76.919 32.892,76.797 33.243,76.554 C33.594,76.31 33.809,76.052 33.889,75.781 L36.014,75.781 C35.674,76.835 35.152,77.589 34.45,78.042 C33.748,78.495 32.897,78.722 31.9,78.722 C31.209,78.722 30.585,78.612 30.03,78.391 C29.475,78.17 29.004,77.855 28.619,77.448 C28.233,77.04 27.936,76.552 27.726,75.986 C27.516,75.419 27.412,74.796 27.412,74.116 C27.412,73.459 27.519,72.846 27.735,72.28 C27.95,71.713 28.256,71.223 28.653,70.809 C29.049,70.395 29.523,70.07 30.072,69.831 C30.621,69.592 31.231,69.474 31.9,69.474 C32.648,69.474 33.299,69.619 33.855,69.908 C34.41,70.197 34.866,70.586 35.224,71.073 C35.581,71.56 35.838,72.116 35.997,72.739 C36.156,73.362 36.212,74.013 36.167,74.694 L29.826,74.694 C29.86,75.474 30.058,76.041 30.421,76.392 L30.421,76.392 Z M33.149,71.768 C32.86,71.452 32.42,71.292 31.832,71.292 C31.446,71.292 31.126,71.357 30.872,71.487 C30.617,71.618 30.413,71.779 30.26,71.971 C30.107,72.164 29.999,72.368 29.937,72.583 C29.875,72.799 29.837,72.991 29.827,73.161 L33.754,73.161 C33.64,72.55 33.438,72.085 33.149,71.768 L33.149,71.768 Z" id="Shape" stroke="none" fill="#00BCF2" fill-rule="evenodd"></path>
    <path d="M39.626,76.315 C39.733,76.503 39.872,76.655 40.043,76.774 C40.213,76.893 40.408,76.981 40.629,77.038 C40.85,77.095 41.079,77.123 41.317,77.123 C41.487,77.123 41.665,77.103 41.852,77.063 C42.039,77.023 42.209,76.961 42.362,76.876 C42.515,76.79 42.642,76.678 42.744,76.535 C42.846,76.393 42.897,76.216 42.897,76 C42.897,75.638 42.656,75.365 42.174,75.184 C41.692,75.003 41.021,74.822 40.159,74.64 C39.808,74.561 39.465,74.468 39.131,74.36 C38.797,74.253 38.499,74.111 38.238,73.935 C37.977,73.759 37.768,73.539 37.609,73.272 C37.45,73.005 37.371,72.68 37.371,72.294 C37.371,71.728 37.482,71.263 37.703,70.9 C37.924,70.537 38.216,70.251 38.578,70.042 C38.941,69.832 39.349,69.685 39.802,69.6 C40.255,69.515 40.72,69.472 41.196,69.472 C41.672,69.472 42.134,69.518 42.582,69.609 C43.029,69.7 43.429,69.852 43.78,70.068 C44.131,70.283 44.423,70.569 44.655,70.926 C44.887,71.282 45.026,71.734 45.072,72.278 L42.78,72.278 C42.746,71.813 42.57,71.499 42.253,71.335 C41.936,71.17 41.562,71.088 41.131,71.088 C40.995,71.088 40.847,71.097 40.689,71.113 C40.53,71.131 40.385,71.167 40.255,71.223 C40.125,71.281 40.014,71.363 39.923,71.47 C39.832,71.577 39.787,71.722 39.787,71.904 C39.787,72.119 39.866,72.295 40.025,72.43 C40.184,72.567 40.39,72.677 40.646,72.762 C40.901,72.847 41.192,72.923 41.521,72.991 C41.849,73.058 42.184,73.133 42.524,73.212 C42.875,73.291 43.218,73.388 43.552,73.501 C43.886,73.614 44.184,73.765 44.445,73.951 C44.706,74.139 44.915,74.371 45.074,74.648 C45.233,74.926 45.312,75.268 45.312,75.676 C45.312,76.254 45.195,76.738 44.963,77.13 C44.731,77.521 44.427,77.835 44.053,78.073 C43.679,78.311 43.251,78.478 42.77,78.574 C42.288,78.671 41.798,78.719 41.299,78.719 C40.789,78.719 40.29,78.668 39.803,78.567 C39.316,78.464 38.882,78.295 38.503,78.056 C38.123,77.819 37.812,77.504 37.568,77.113 C37.324,76.722 37.191,76.232 37.169,75.642 L39.464,75.642 C39.465,75.905 39.519,76.129 39.626,76.315 L39.626,76.315 Z" id="Shape" stroke="none" fill="#00BCF2" fill-rule="evenodd"></path>
    <path d="M48.755,76.315 C48.862,76.503 49.001,76.655 49.172,76.774 C49.342,76.893 49.537,76.981 49.758,77.038 C49.979,77.095 50.208,77.123 50.446,77.123 C50.616,77.123 50.794,77.103 50.981,77.063 C51.168,77.023 51.338,76.961 51.491,76.876 C51.644,76.79 51.771,76.678 51.873,76.535 C51.975,76.393 52.026,76.216 52.026,76 C52.026,75.638 51.785,75.365 51.303,75.184 C50.821,75.003 50.15,74.822 49.288,74.64 C48.937,74.561 48.594,74.468 48.26,74.36 C47.926,74.253 47.628,74.111 47.367,73.935 C47.106,73.759 46.897,73.539 46.738,73.272 C46.579,73.005 46.5,72.68 46.5,72.294 C46.5,71.728 46.611,71.263 46.832,70.9 C47.053,70.537 47.345,70.251 47.707,70.042 C48.07,69.832 48.478,69.685 48.931,69.6 C49.384,69.515 49.849,69.472 50.325,69.472 C50.801,69.472 51.263,69.518 51.711,69.609 C52.158,69.7 52.558,69.852 52.909,70.068 C53.26,70.283 53.552,70.569 53.784,70.926 C54.016,71.282 54.155,71.734 54.201,72.278 L51.906,72.278 C51.872,71.813 51.696,71.499 51.379,71.335 C51.062,71.17 50.688,71.088 50.257,71.088 C50.121,71.088 49.973,71.097 49.815,71.113 C49.656,71.131 49.511,71.167 49.381,71.223 C49.251,71.281 49.14,71.363 49.049,71.47 C48.958,71.577 48.913,71.722 48.913,71.904 C48.913,72.119 48.992,72.295 49.151,72.43 C49.31,72.567 49.516,72.677 49.772,72.762 C50.027,72.847 50.318,72.923 50.647,72.991 C50.975,73.058 51.31,73.133 51.65,73.212 C52.001,73.291 52.344,73.388 52.678,73.501 C53.012,73.614 53.31,73.765 53.571,73.951 C53.832,74.139 54.041,74.371 54.2,74.648 C54.359,74.926 54.438,75.268 54.438,75.676 C54.438,76.254 54.321,76.738 54.089,77.13 C53.857,77.521 53.553,77.835 53.179,78.073 C52.805,78.311 52.377,78.478 51.896,78.574 C51.414,78.671 50.924,78.719 50.425,78.719 C49.915,78.719 49.416,78.668 48.929,78.567 C48.442,78.464 48.008,78.295 47.629,78.056 C47.249,77.819 46.938,77.504 46.694,77.113 C46.45,76.722 46.317,76.232 46.295,75.642 L48.59,75.642 C48.594,75.905 48.647,76.129 48.755,76.315 L48.755,76.315 Z" id="Shape" stroke="none" fill="#00BCF2" fill-rule="evenodd"></path>
    <path d="M55.75,72.414 C55.784,71.848 55.926,71.377 56.175,71.003 C56.424,70.629 56.741,70.329 57.127,70.102 C57.512,69.875 57.946,69.714 58.428,69.618 C58.909,69.522 59.394,69.473 59.881,69.473 C60.323,69.473 60.771,69.504 61.224,69.567 C61.677,69.629 62.091,69.752 62.465,69.932 C62.839,70.114 63.145,70.366 63.383,70.689 C63.621,71.012 63.74,71.44 63.74,71.972 L63.74,76.545 C63.74,76.941 63.762,77.321 63.808,77.684 C63.853,78.047 63.933,78.319 64.046,78.5 L61.598,78.5 C61.553,78.364 61.515,78.226 61.488,78.084 C61.459,77.942 61.44,77.798 61.428,77.65 C61.042,78.046 60.589,78.324 60.068,78.483 C59.547,78.641 59.014,78.72 58.47,78.72 C58.051,78.72 57.659,78.669 57.297,78.568 C56.934,78.465 56.617,78.307 56.345,78.091 C56.073,77.876 55.86,77.604 55.707,77.276 C55.554,76.947 55.478,76.556 55.478,76.102 C55.478,75.604 55.566,75.193 55.742,74.87 C55.917,74.548 56.144,74.29 56.422,74.097 C56.7,73.905 57.017,73.76 57.374,73.663 C57.731,73.567 58.091,73.491 58.454,73.434 C58.816,73.377 59.174,73.332 59.525,73.298 C59.876,73.264 60.188,73.213 60.46,73.145 C60.732,73.078 60.947,72.978 61.106,72.848 C61.265,72.718 61.338,72.528 61.327,72.279 C61.327,72.018 61.285,71.811 61.2,71.658 C61.115,71.506 61.001,71.387 60.86,71.302 C60.719,71.217 60.554,71.16 60.367,71.132 C60.18,71.104 59.978,71.089 59.763,71.089 C59.287,71.089 58.913,71.192 58.641,71.395 C58.369,71.599 58.21,71.94 58.165,72.416 L55.75,72.416 L55.75,72.414 Z M61.327,74.199 C61.225,74.29 61.098,74.36 60.944,74.411 C60.791,74.463 60.627,74.505 60.451,74.539 C60.275,74.573 60.091,74.601 59.898,74.624 C59.705,74.647 59.513,74.675 59.32,74.709 C59.138,74.743 58.96,74.788 58.784,74.845 C58.608,74.902 58.455,74.979 58.325,75.074 C58.195,75.171 58.09,75.293 58.011,75.44 C57.931,75.587 57.892,75.774 57.892,76.001 C57.892,76.217 57.932,76.397 58.011,76.545 C58.09,76.692 58.198,76.809 58.334,76.894 C58.47,76.979 58.628,77.039 58.81,77.073 C58.991,77.107 59.178,77.124 59.371,77.124 C59.847,77.124 60.215,77.045 60.476,76.886 C60.737,76.728 60.929,76.537 61.054,76.317 C61.179,76.096 61.255,75.873 61.283,75.645 C61.311,75.418 61.325,75.238 61.325,75.101 L61.325,74.199 L61.327,74.199 Z" id="Shape" stroke="none" fill="#00BCF2" fill-rule="evenodd"></path>
    <path d="M73.915,79.146 C73.818,79.599 73.611,80.021 73.294,80.412 C72.977,80.804 72.518,81.135 71.917,81.407 C71.316,81.678 70.511,81.815 69.503,81.815 C69.072,81.815 68.633,81.76 68.186,81.653 C67.738,81.546 67.33,81.379 66.962,81.152 C66.593,80.924 66.288,80.633 66.044,80.276 C65.8,79.92 65.662,79.491 65.627,78.993 L68.024,78.993 C68.137,79.446 68.358,79.761 68.687,79.936 C69.016,80.112 69.395,80.2 69.826,80.2 C70.506,80.2 71.002,79.996 71.314,79.588 C71.626,79.18 71.775,78.664 71.764,78.041 L71.764,76.885 L71.73,76.885 C71.469,77.35 71.098,77.693 70.616,77.913 C70.135,78.135 69.627,78.245 69.095,78.245 C68.438,78.245 67.871,78.129 67.395,77.896 C66.919,77.663 66.528,77.346 66.222,76.944 C65.916,76.542 65.692,76.072 65.551,75.533 C65.409,74.995 65.339,74.426 65.339,73.825 C65.339,73.259 65.421,72.712 65.586,72.184 C65.75,71.657 65.991,71.193 66.309,70.789 C66.626,70.388 67.02,70.067 67.49,69.829 C67.96,69.591 68.502,69.472 69.114,69.472 C69.692,69.472 70.199,69.58 70.635,69.795 C71.071,70.011 71.437,70.373 71.732,70.883 L71.766,70.883 L71.766,69.71 L74.061,69.71 L74.061,77.939 C74.06,78.29 74.011,78.692 73.915,79.146 L73.915,79.146 Z M70.608,76.222 C70.869,76.086 71.084,75.906 71.254,75.678 C71.424,75.451 71.551,75.194 71.636,74.905 C71.721,74.616 71.763,74.313 71.763,73.996 C71.763,73.634 71.729,73.29 71.661,72.968 C71.593,72.645 71.479,72.359 71.321,72.11 C71.162,71.86 70.953,71.662 70.692,71.514 C70.431,71.368 70.103,71.293 69.706,71.293 C69.366,71.293 69.074,71.361 68.831,71.497 C68.587,71.633 68.383,71.817 68.219,72.05 C68.055,72.282 67.936,72.548 67.862,72.849 C67.788,73.149 67.752,73.464 67.752,73.792 C67.752,74.109 67.783,74.424 67.845,74.735 C67.907,75.047 68.015,75.328 68.168,75.577 C68.321,75.826 68.522,76.03 68.772,76.189 C69.021,76.347 69.333,76.426 69.707,76.426 C70.047,76.426 70.348,76.358 70.608,76.222 L70.608,76.222 Z" id="Shape" stroke="none" fill="#00BCF2" fill-rule="evenodd"></path>
    <path d="M78.581,76.392 C78.944,76.744 79.465,76.919 80.145,76.919 C80.632,76.919 81.052,76.797 81.403,76.554 C81.754,76.31 81.969,76.052 82.049,75.781 L84.174,75.781 C83.834,76.835 83.312,77.589 82.61,78.042 C81.908,78.495 81.057,78.722 80.06,78.722 C79.369,78.722 78.745,78.612 78.19,78.391 C77.635,78.17 77.164,77.855 76.779,77.448 C76.393,77.04 76.096,76.552 75.886,75.986 C75.676,75.419 75.572,74.796 75.572,74.116 C75.572,73.459 75.679,72.846 75.895,72.28 C76.11,71.713 76.416,71.223 76.813,70.809 C77.209,70.395 77.683,70.07 78.232,69.831 C78.781,69.592 79.391,69.474 80.06,69.474 C80.808,69.474 81.459,69.619 82.015,69.908 C82.57,70.197 83.026,70.586 83.384,71.073 C83.741,71.56 83.998,72.116 84.157,72.739 C84.316,73.362 84.372,74.013 84.327,74.694 L77.986,74.694 C78.02,75.474 78.218,76.041 78.581,76.392 L78.581,76.392 Z M81.31,71.768 C81.021,71.452 80.581,71.292 79.993,71.292 C79.607,71.292 79.287,71.357 79.033,71.487 C78.778,71.618 78.574,71.779 78.421,71.971 C78.268,72.164 78.16,72.368 78.098,72.583 C78.036,72.799 77.998,72.991 77.988,73.161 L81.915,73.161 C81.8,72.55 81.599,72.085 81.31,71.768 L81.31,71.768 Z" id="Shape" stroke="none" fill="#00BCF2" fill-rule="evenodd"></path>
</svg>