<?xml version="1.0" encoding="utf-8"?>
<!-- Generator: Adobe Illustrator 16.0.4, SVG Export Plug-In . SVG Version: 6.00 Build 0)  -->
<!DOCTYPE svg PUBLIC "-//W3C//DTD SVG 1.1//EN" "http://www.w3.org/Graphics/SVG/1.1/DTD/svg11.dtd">
<svg version="1.1" id="Layer_1" xmlns="http://www.w3.org/2000/svg" xmlns:xlink="http://www.w3.org/1999/xlink" x="0px" y="0px"
	 width="400px" height="200px" viewBox="0 0 400 200" enable-background="new 0 0 400 200" xml:space="preserve">
<title>Group 4</title>
<desc>Created with Sketch.</desc>
<title>Group 4</title>
<desc>Created with Sketch.</desc>
<path fill-rule="evenodd" clip-rule="evenodd" fill="none" d="M2.5,6.496C2.5,3.736,4.744,1.5,7.502,1.5h174.996
	c2.763,0,5.002,2.243,5.002,4.996v25.008c0,2.76-2.244,4.996-5.002,4.996H7.502c-2.763,0-5.002-2.243-5.002-4.996V6.496z"/>
<path fill-rule="evenodd" clip-rule="evenodd" fill="none" d="M2,6.496v25.008C2,34.535,4.465,37,7.502,37h174.996
	c3.035,0,5.502-2.462,5.502-5.496V6.496C188,3.465,185.535,1,182.498,1H7.502C4.467,1,2,3.462,2,6.496z M3,6.496
	C3,4.015,5.019,2,7.502,2h174.996C184.982,2,187,4.017,187,6.496v25.008c0,2.481-2.019,4.496-4.502,4.496H7.502
	C5.018,36,3,33.983,3,31.504V6.496z M208,57"/>
<path fill="none" stroke="#00AEEF" stroke-width="2" stroke-miterlimit="10" d="M2.5,6.496C2.5,3.736,4.744,1.5,7.502,1.5h174.996
	c2.763,0,5.002,2.242,5.002,4.996v25.008c0,2.76-2.244,4.996-5.002,4.996H7.502c-2.763,0-5.002-2.242-5.002-4.996V6.496z"/>
<path fill-rule="evenodd" clip-rule="evenodd" fill="none" d="M2.5,6.496C2.5,3.736,4.744,1.5,7.502,1.5h174.996
	c2.763,0,5.002,2.243,5.002,4.996v25.008c0,2.76-2.244,4.996-5.002,4.996H7.502c-2.763,0-5.002-2.243-5.002-4.996V6.496z"/>
<g>
	<path fill="#00BCF2" d="M17.325,12.362l5.066,8.143h0.034v-8.143h2.499V24.5h-2.669l-5.049-8.126h-0.034V24.5h-2.499V12.362H17.325
		z"/>
	<path fill="#00BCF2" d="M26.913,18.414c0.034-0.566,0.176-1.037,0.425-1.411c0.249-0.374,0.566-0.674,0.952-0.901
		c0.385-0.227,0.819-0.388,1.301-0.484c0.481-0.096,0.966-0.145,1.453-0.145c0.442,0,0.89,0.031,1.343,0.094
		c0.453,0.062,0.867,0.185,1.241,0.365c0.374,0.182,0.68,0.434,0.918,0.757c0.238,0.323,0.357,0.751,0.357,1.283v4.573
		c0,0.396,0.022,0.776,0.068,1.139c0.045,0.363,0.125,0.635,0.238,0.816h-2.448c-0.045-0.136-0.083-0.274-0.11-0.416
		c-0.029-0.142-0.048-0.286-0.06-0.434c-0.386,0.396-0.839,0.674-1.36,0.833c-0.521,0.158-1.054,0.237-1.598,0.237
		c-0.419,0-0.811-0.051-1.173-0.152c-0.363-0.103-0.68-0.261-0.952-0.477c-0.272-0.215-0.485-0.487-0.638-0.815
		c-0.153-0.329-0.229-0.72-0.229-1.174c0-0.498,0.088-0.909,0.264-1.232c0.175-0.322,0.402-0.58,0.68-0.773
		c0.278-0.192,0.595-0.337,0.952-0.434c0.357-0.096,0.717-0.172,1.08-0.229c0.362-0.057,0.72-0.102,1.071-0.136
		s0.663-0.085,0.935-0.153c0.272-0.067,0.487-0.167,0.646-0.297s0.232-0.32,0.221-0.569c0-0.261-0.042-0.468-0.127-0.621
		c-0.085-0.152-0.199-0.271-0.34-0.356s-0.306-0.142-0.493-0.17s-0.389-0.043-0.604-0.043c-0.476,0-0.85,0.103-1.122,0.306
		c-0.272,0.204-0.431,0.545-0.476,1.021H26.913z M32.489,20.199c-0.102,0.091-0.229,0.161-0.383,0.212
		c-0.153,0.052-0.317,0.094-0.493,0.128c-0.176,0.034-0.36,0.062-0.553,0.085s-0.385,0.051-0.578,0.085
		c-0.182,0.034-0.36,0.079-0.536,0.136c-0.176,0.057-0.329,0.134-0.459,0.229c-0.13,0.097-0.235,0.219-0.314,0.366
		c-0.08,0.147-0.119,0.334-0.119,0.561c0,0.216,0.04,0.396,0.119,0.544c0.079,0.147,0.187,0.264,0.323,0.349
		c0.136,0.085,0.294,0.145,0.476,0.179c0.181,0.034,0.368,0.051,0.561,0.051c0.476,0,0.844-0.079,1.105-0.238
		c0.261-0.158,0.453-0.349,0.578-0.569c0.125-0.221,0.201-0.444,0.229-0.672c0.028-0.227,0.042-0.407,0.042-0.544V20.199z"/>
	<path fill="#00BCF2" d="M39.119,15.711v1.19h0.034c0.317-0.453,0.7-0.805,1.147-1.055c0.448-0.249,0.96-0.374,1.539-0.374
		c0.555,0,1.062,0.108,1.521,0.323c0.459,0.216,0.808,0.595,1.045,1.139c0.261-0.385,0.615-0.725,1.062-1.02s0.978-0.442,1.59-0.442
		c0.464,0,0.895,0.058,1.292,0.17c0.396,0.114,0.736,0.295,1.02,0.544c0.283,0.25,0.504,0.576,0.663,0.978
		c0.158,0.403,0.238,0.888,0.238,1.454V24.5h-2.414v-4.981c0-0.294-0.011-0.571-0.034-0.833c-0.022-0.26-0.085-0.486-0.187-0.68
		c-0.102-0.192-0.252-0.346-0.45-0.459c-0.199-0.113-0.468-0.17-0.808-0.17s-0.615,0.065-0.824,0.195
		c-0.21,0.131-0.374,0.301-0.493,0.51c-0.119,0.21-0.199,0.448-0.238,0.715c-0.04,0.266-0.059,0.535-0.059,0.807V24.5h-2.414v-4.93
		c0-0.261-0.006-0.519-0.017-0.773c-0.011-0.256-0.06-0.49-0.145-0.706c-0.085-0.215-0.227-0.388-0.425-0.519
		c-0.199-0.13-0.491-0.195-0.875-0.195c-0.114,0-0.264,0.025-0.451,0.076c-0.187,0.052-0.369,0.147-0.544,0.289
		c-0.176,0.143-0.326,0.346-0.451,0.612c-0.125,0.267-0.187,0.615-0.187,1.046v5.1h-2.414v-8.789H39.119z"/>
	<path fill="#00BCF2" d="M54.759,22.392c0.363,0.352,0.884,0.527,1.564,0.527c0.487,0,0.907-0.122,1.258-0.365
		c0.351-0.244,0.566-0.502,0.646-0.773h2.125c-0.34,1.054-0.862,1.808-1.564,2.261s-1.553,0.68-2.55,0.68
		c-0.691,0-1.315-0.11-1.87-0.331s-1.026-0.536-1.411-0.943c-0.386-0.408-0.683-0.896-0.893-1.462
		c-0.21-0.567-0.314-1.19-0.314-1.87c0-0.657,0.107-1.27,0.323-1.836c0.215-0.567,0.521-1.057,0.918-1.471
		c0.396-0.414,0.87-0.739,1.419-0.978s1.159-0.357,1.828-0.357c0.748,0,1.399,0.145,1.955,0.434
		c0.555,0.289,1.011,0.678,1.369,1.165c0.357,0.487,0.614,1.043,0.773,1.666c0.159,0.623,0.215,1.274,0.17,1.955h-6.341
		C54.198,21.474,54.396,22.041,54.759,22.392z M57.487,17.768c-0.289-0.316-0.729-0.476-1.317-0.476
		c-0.386,0-0.706,0.065-0.96,0.195c-0.255,0.131-0.459,0.292-0.612,0.484c-0.153,0.193-0.261,0.397-0.323,0.612
		c-0.062,0.216-0.1,0.408-0.11,0.578h3.927C57.978,18.55,57.776,18.085,57.487,17.768z"/>
</g>
<path fill-rule="evenodd" clip-rule="evenodd" fill="none" d="M212.5,6.496c0-2.76,2.244-4.996,5.002-4.996h174.996
	c2.763,0,5.002,2.243,5.002,4.996v25.008c0,2.76-2.244,4.996-5.002,4.996H217.502c-2.763,0-5.002-2.243-5.002-4.996V6.496z"/>
<path fill-rule="evenodd" clip-rule="evenodd" fill="none" d="M212,6.496v25.008c0,3.031,2.465,5.496,5.502,5.496h174.996
	c3.035,0,5.502-2.462,5.502-5.496V6.496C398,3.465,395.534,1,392.498,1H217.502C214.467,1,212,3.462,212,6.496z M213,6.496
	C213,4.015,215.019,2,217.502,2h174.996C394.982,2,397,4.017,397,6.496v25.008c0,2.481-2.019,4.496-4.502,4.496H217.502
	c-2.484,0-4.502-2.017-4.502-4.496V6.496z"/>
<path fill="none" stroke="#00AEEF" stroke-width="2" stroke-miterlimit="10" d="M212.5,6.496c0-2.76,2.244-4.996,5.002-4.996
	h174.996c2.763,0,5.002,2.242,5.002,4.996v25.008c0,2.76-2.244,4.996-5.002,4.996H217.502c-2.763,0-5.002-2.242-5.002-4.996V6.496z"
	/>
<path fill-rule="evenodd" clip-rule="evenodd" fill="none" d="M212.5,6.496c0-2.76,2.244-4.996,5.002-4.996h174.996
	c2.763,0,5.002,2.243,5.002,4.996v25.008c0,2.76-2.244,4.996-5.002,4.996H217.502c-2.763,0-5.002-2.243-5.002-4.996V6.496z"/>
<g>
	<path fill="#00BCF2" d="M233.751,12.362v2.244h-6.409v2.601h5.883v2.074h-5.883v2.975h6.545V24.5h-9.214V12.362H233.751z"/>
	<path fill="#00BCF2" d="M237.78,15.711v1.19h0.034c0.316-0.453,0.699-0.805,1.146-1.055c0.448-0.249,0.961-0.374,1.539-0.374
		c0.555,0,1.062,0.108,1.521,0.323c0.459,0.216,0.808,0.595,1.045,1.139c0.262-0.385,0.615-0.725,1.062-1.02
		c0.448-0.295,0.979-0.442,1.59-0.442c0.465,0,0.896,0.058,1.293,0.17c0.396,0.114,0.736,0.295,1.02,0.544
		c0.283,0.25,0.504,0.576,0.663,0.978c0.158,0.403,0.237,0.888,0.237,1.454V24.5h-2.414v-4.981c0-0.294-0.011-0.571-0.033-0.833
		c-0.023-0.26-0.086-0.486-0.188-0.68c-0.102-0.192-0.252-0.346-0.45-0.459s-0.468-0.17-0.808-0.17s-0.615,0.065-0.824,0.195
		c-0.21,0.131-0.374,0.301-0.493,0.51c-0.119,0.21-0.198,0.448-0.238,0.715c-0.04,0.266-0.06,0.535-0.06,0.807V24.5h-2.414v-4.93
		c0-0.261-0.006-0.519-0.017-0.773c-0.011-0.256-0.06-0.49-0.145-0.706c-0.085-0.215-0.228-0.388-0.425-0.519
		c-0.199-0.13-0.49-0.195-0.875-0.195c-0.114,0-0.264,0.025-0.451,0.076c-0.188,0.052-0.369,0.147-0.544,0.289
		c-0.176,0.143-0.326,0.346-0.45,0.612c-0.125,0.267-0.188,0.615-0.188,1.046v5.1h-2.414v-8.789H237.78z"/>
	<path fill="#00BCF2" d="M250.734,18.414c0.033-0.566,0.176-1.037,0.425-1.411s0.566-0.674,0.952-0.901
		c0.385-0.227,0.818-0.388,1.301-0.484c0.48-0.096,0.965-0.145,1.453-0.145c0.441,0,0.889,0.031,1.343,0.094
		c0.453,0.062,0.867,0.185,1.241,0.365c0.373,0.182,0.68,0.434,0.918,0.757s0.357,0.751,0.357,1.283v4.573
		c0,0.396,0.021,0.776,0.067,1.139c0.045,0.363,0.124,0.635,0.237,0.816h-2.447c-0.045-0.136-0.082-0.274-0.11-0.416
		s-0.048-0.286-0.06-0.434c-0.386,0.396-0.839,0.674-1.36,0.833c-0.521,0.158-1.054,0.237-1.598,0.237
		c-0.419,0-0.811-0.051-1.173-0.152c-0.363-0.103-0.68-0.261-0.952-0.477c-0.272-0.215-0.485-0.487-0.638-0.815
		c-0.152-0.329-0.229-0.72-0.229-1.174c0-0.498,0.088-0.909,0.264-1.232c0.175-0.322,0.401-0.58,0.68-0.773
		c0.278-0.192,0.595-0.337,0.952-0.434c0.357-0.096,0.717-0.172,1.08-0.229c0.361-0.057,0.719-0.102,1.07-0.136
		s0.663-0.085,0.936-0.153c0.271-0.067,0.486-0.167,0.646-0.297s0.232-0.32,0.222-0.569c0-0.261-0.043-0.468-0.128-0.621
		c-0.085-0.152-0.198-0.271-0.341-0.356c-0.141-0.085-0.305-0.142-0.492-0.17s-0.389-0.043-0.604-0.043
		c-0.477,0-0.85,0.103-1.122,0.306c-0.272,0.204-0.431,0.545-0.476,1.021H250.734z M256.311,20.199
		c-0.103,0.091-0.23,0.161-0.383,0.212c-0.153,0.052-0.318,0.094-0.493,0.128c-0.176,0.034-0.36,0.062-0.553,0.085
		s-0.386,0.051-0.577,0.085c-0.182,0.034-0.361,0.079-0.536,0.136c-0.176,0.057-0.329,0.134-0.459,0.229
		c-0.13,0.097-0.235,0.219-0.314,0.366s-0.119,0.334-0.119,0.561c0,0.216,0.04,0.396,0.119,0.544s0.187,0.264,0.323,0.349
		c0.136,0.085,0.294,0.145,0.476,0.179c0.181,0.034,0.368,0.051,0.562,0.051c0.476,0,0.844-0.079,1.104-0.238
		c0.261-0.158,0.453-0.349,0.578-0.569c0.124-0.221,0.201-0.444,0.229-0.672c0.027-0.227,0.043-0.407,0.043-0.544V20.199z"/>
	<path fill="#00BCF2" d="M260.662,14.351v-1.988h2.414v1.988H260.662z M263.076,15.711V24.5h-2.414v-8.789H263.076z"/>
	<path fill="#00BCF2" d="M267.461,12.362V24.5h-2.414V12.362H267.461z"/>
</g>
<path fill-rule="evenodd" clip-rule="evenodd" fill="none" d="M2.5,61.493c0-2.758,2.231-4.993,4.996-4.993h385.008
	c2.759,0,4.996,2.229,4.996,4.993v131.014c0,2.758-2.231,4.993-4.996,4.993H7.496c-2.76,0-4.996-2.229-4.996-4.993V61.493z"/>
<path fill-rule="evenodd" clip-rule="evenodd" fill="none" d="M2,61.493v131.014C2,195.545,4.459,198,7.496,198h385.008
	c3.039,0,5.496-2.458,5.496-5.493V61.493c0-3.038-2.459-5.493-5.496-5.493H7.496C4.457,56,2,58.458,2,61.493z M3,61.493
	C3,59.01,5.01,57,7.496,57h385.008c2.485,0,4.496,2.008,4.496,4.493v131.014c0,2.483-2.01,4.493-4.496,4.493H7.496
	C5.011,197,3,194.992,3,192.507V61.493z"/>
<path fill="none" stroke="#00AEEF" stroke-width="2" stroke-miterlimit="10" d="M2.5,61.493c0-2.758,2.231-4.993,4.996-4.993
	h385.008c2.759,0,4.996,2.229,4.996,4.993v131.014c0,2.758-2.231,4.993-4.996,4.993H7.496c-2.76,0-4.996-2.229-4.996-4.993V61.493z"
	/>
<path fill-rule="evenodd" clip-rule="evenodd" fill="none" d="M2.5,61.493c0-2.758,2.231-4.993,4.996-4.993h385.008
	c2.759,0,4.996,2.229,4.996,4.993v131.014c0,2.758-2.231,4.993-4.996,4.993H7.496c-2.76,0-4.996-2.229-4.996-4.993V61.493z"/>
<g>
	<path fill="#00BCF2" d="M18.43,67.362l2.839,8.347h0.034l2.686-8.347h3.757V79.5h-2.499v-8.602h-0.034L22.238,79.5h-2.057
		l-2.975-8.517h-0.034V79.5h-2.499V67.362H18.43z"/>
	<path fill="#00BCF2" d="M32.421,77.392c0.363,0.352,0.884,0.527,1.564,0.527c0.487,0,0.907-0.122,1.258-0.365
		c0.351-0.244,0.566-0.502,0.646-0.773h2.125c-0.34,1.054-0.862,1.808-1.564,2.261s-1.553,0.68-2.55,0.68
		c-0.691,0-1.315-0.11-1.87-0.331s-1.026-0.536-1.411-0.943c-0.386-0.408-0.683-0.896-0.893-1.462
		c-0.21-0.567-0.314-1.19-0.314-1.87c0-0.657,0.107-1.27,0.323-1.836c0.215-0.567,0.521-1.057,0.918-1.471
		c0.396-0.414,0.87-0.739,1.419-0.978s1.159-0.357,1.828-0.357c0.748,0,1.399,0.145,1.955,0.434
		c0.555,0.289,1.011,0.678,1.369,1.165c0.357,0.487,0.614,1.043,0.773,1.666c0.159,0.623,0.215,1.274,0.17,1.955h-6.341
		C31.86,76.474,32.058,77.041,32.421,77.392z M35.149,72.768c-0.289-0.316-0.729-0.476-1.317-0.476c-0.386,0-0.706,0.065-0.96,0.195
		c-0.255,0.131-0.459,0.292-0.612,0.484c-0.153,0.193-0.261,0.397-0.323,0.612c-0.062,0.216-0.1,0.408-0.11,0.578h3.927
		C35.64,73.55,35.438,73.085,35.149,72.768z"/>
	<path fill="#00BCF2" d="M41.626,77.315c0.107,0.188,0.246,0.34,0.417,0.459c0.17,0.119,0.365,0.207,0.586,0.264
		c0.221,0.057,0.45,0.085,0.688,0.085c0.17,0,0.348-0.02,0.535-0.06s0.357-0.102,0.51-0.187c0.153-0.086,0.28-0.198,0.382-0.341
		c0.102-0.142,0.153-0.319,0.153-0.535c0-0.362-0.241-0.635-0.723-0.816c-0.482-0.181-1.153-0.362-2.015-0.544
		c-0.351-0.079-0.694-0.172-1.028-0.28c-0.334-0.107-0.632-0.249-0.893-0.425s-0.47-0.396-0.629-0.663s-0.238-0.592-0.238-0.978
		c0-0.566,0.111-1.031,0.332-1.394c0.221-0.363,0.513-0.649,0.875-0.858c0.363-0.21,0.771-0.357,1.224-0.442
		s0.918-0.128,1.394-0.128s0.938,0.046,1.386,0.137c0.447,0.091,0.847,0.243,1.198,0.459c0.351,0.215,0.643,0.501,0.875,0.858
		c0.232,0.356,0.371,0.808,0.417,1.352H44.78c-0.034-0.465-0.21-0.779-0.527-0.943c-0.317-0.165-0.691-0.247-1.122-0.247
		c-0.136,0-0.284,0.009-0.442,0.025c-0.159,0.018-0.304,0.054-0.434,0.11c-0.13,0.058-0.241,0.14-0.332,0.247
		c-0.091,0.107-0.136,0.252-0.136,0.434c0,0.215,0.079,0.391,0.238,0.526c0.159,0.137,0.365,0.247,0.621,0.332
		c0.255,0.085,0.546,0.161,0.875,0.229c0.328,0.067,0.663,0.142,1.003,0.221c0.351,0.079,0.694,0.176,1.028,0.289
		c0.334,0.113,0.632,0.264,0.893,0.45c0.261,0.188,0.47,0.42,0.629,0.697c0.159,0.278,0.238,0.62,0.238,1.028
		c0,0.578-0.117,1.062-0.349,1.454c-0.232,0.391-0.536,0.705-0.91,0.943s-0.802,0.405-1.283,0.501
		c-0.482,0.097-0.972,0.145-1.471,0.145c-0.51,0-1.009-0.051-1.496-0.152c-0.487-0.103-0.921-0.272-1.3-0.511
		c-0.38-0.237-0.691-0.552-0.935-0.943c-0.244-0.391-0.377-0.881-0.399-1.471h2.295C41.465,76.905,41.519,77.129,41.626,77.315z"/>
	<path fill="#00BCF2" d="M50.755,77.315c0.107,0.188,0.246,0.34,0.417,0.459c0.17,0.119,0.365,0.207,0.586,0.264
		c0.221,0.057,0.45,0.085,0.688,0.085c0.17,0,0.348-0.02,0.535-0.06s0.357-0.102,0.51-0.187c0.153-0.086,0.28-0.198,0.382-0.341
		c0.102-0.142,0.153-0.319,0.153-0.535c0-0.362-0.241-0.635-0.723-0.816c-0.482-0.181-1.153-0.362-2.015-0.544
		c-0.351-0.079-0.694-0.172-1.028-0.28c-0.334-0.107-0.632-0.249-0.893-0.425s-0.47-0.396-0.629-0.663s-0.238-0.592-0.238-0.978
		c0-0.566,0.111-1.031,0.332-1.394c0.221-0.363,0.513-0.649,0.875-0.858c0.363-0.21,0.771-0.357,1.224-0.442
		s0.918-0.128,1.394-0.128s0.938,0.046,1.386,0.137c0.447,0.091,0.847,0.243,1.198,0.459c0.351,0.215,0.643,0.501,0.875,0.858
		c0.232,0.356,0.371,0.808,0.417,1.352h-2.295c-0.034-0.465-0.21-0.779-0.527-0.943c-0.317-0.165-0.691-0.247-1.122-0.247
		c-0.136,0-0.284,0.009-0.442,0.025c-0.159,0.018-0.304,0.054-0.434,0.11c-0.13,0.058-0.241,0.14-0.332,0.247
		c-0.091,0.107-0.136,0.252-0.136,0.434c0,0.215,0.079,0.391,0.238,0.526c0.159,0.137,0.365,0.247,0.621,0.332
		c0.255,0.085,0.546,0.161,0.875,0.229c0.328,0.067,0.663,0.142,1.003,0.221c0.351,0.079,0.694,0.176,1.028,0.289
		c0.334,0.113,0.632,0.264,0.893,0.45c0.261,0.188,0.47,0.42,0.629,0.697c0.159,0.278,0.238,0.62,0.238,1.028
		c0,0.578-0.117,1.062-0.349,1.454c-0.232,0.391-0.536,0.705-0.91,0.943s-0.802,0.405-1.283,0.501
		c-0.482,0.097-0.972,0.145-1.471,0.145c-0.51,0-1.009-0.051-1.496-0.152c-0.487-0.103-0.921-0.272-1.3-0.511
		c-0.38-0.237-0.691-0.552-0.935-0.943c-0.244-0.391-0.377-0.881-0.399-1.471h2.295C50.594,76.905,50.647,77.129,50.755,77.315z"/>
	<path fill="#00BCF2" d="M57.75,73.414c0.034-0.566,0.176-1.037,0.425-1.411c0.249-0.374,0.566-0.674,0.952-0.901
		c0.385-0.227,0.819-0.388,1.301-0.484c0.481-0.096,0.966-0.145,1.453-0.145c0.442,0,0.89,0.031,1.343,0.094
		c0.453,0.062,0.867,0.185,1.241,0.365c0.374,0.182,0.68,0.434,0.918,0.757c0.238,0.323,0.357,0.751,0.357,1.283v4.573
		c0,0.396,0.022,0.776,0.068,1.139c0.045,0.363,0.125,0.635,0.238,0.816h-2.448c-0.045-0.136-0.083-0.274-0.11-0.416
		c-0.029-0.142-0.048-0.286-0.06-0.434c-0.386,0.396-0.839,0.674-1.36,0.833c-0.521,0.158-1.054,0.237-1.598,0.237
		c-0.419,0-0.811-0.051-1.173-0.152c-0.363-0.103-0.68-0.261-0.952-0.477c-0.272-0.215-0.485-0.487-0.638-0.815
		c-0.153-0.329-0.229-0.72-0.229-1.174c0-0.498,0.088-0.909,0.264-1.232c0.175-0.322,0.402-0.58,0.68-0.773
		c0.278-0.192,0.595-0.337,0.952-0.434c0.357-0.096,0.717-0.172,1.08-0.229c0.362-0.057,0.72-0.102,1.071-0.136
		s0.663-0.085,0.935-0.153c0.272-0.067,0.487-0.167,0.646-0.297s0.232-0.32,0.221-0.569c0-0.261-0.042-0.468-0.127-0.621
		c-0.085-0.152-0.199-0.271-0.34-0.356s-0.306-0.142-0.493-0.17s-0.389-0.043-0.604-0.043c-0.476,0-0.85,0.103-1.122,0.306
		c-0.272,0.204-0.431,0.545-0.476,1.021H57.75z M63.327,75.199c-0.102,0.091-0.229,0.161-0.383,0.212
		c-0.153,0.052-0.317,0.094-0.493,0.128c-0.176,0.034-0.36,0.062-0.553,0.085s-0.385,0.051-0.578,0.085
		c-0.182,0.034-0.36,0.079-0.536,0.136c-0.176,0.057-0.329,0.134-0.459,0.229c-0.13,0.097-0.235,0.219-0.314,0.366
		c-0.08,0.147-0.119,0.334-0.119,0.561c0,0.216,0.04,0.396,0.119,0.544c0.079,0.147,0.187,0.264,0.323,0.349
		c0.136,0.085,0.294,0.145,0.476,0.179c0.181,0.034,0.368,0.051,0.561,0.051c0.476,0,0.844-0.079,1.105-0.238
		c0.261-0.158,0.453-0.349,0.578-0.569c0.125-0.221,0.201-0.444,0.229-0.672c0.028-0.227,0.042-0.407,0.042-0.544V75.199z"/>
	<path fill="#00BCF2" d="M75.915,80.146c-0.097,0.453-0.304,0.875-0.621,1.266c-0.317,0.392-0.776,0.723-1.377,0.995
		c-0.601,0.271-1.406,0.408-2.414,0.408c-0.431,0-0.87-0.055-1.317-0.162c-0.448-0.107-0.856-0.274-1.224-0.501
		c-0.369-0.228-0.674-0.519-0.918-0.876c-0.244-0.356-0.382-0.785-0.417-1.283h2.397c0.113,0.453,0.334,0.768,0.663,0.943
		c0.329,0.176,0.708,0.264,1.139,0.264c0.68,0,1.176-0.204,1.488-0.612c0.312-0.408,0.461-0.924,0.45-1.547v-1.156H73.73
		c-0.261,0.465-0.632,0.808-1.114,1.028c-0.481,0.222-0.989,0.332-1.521,0.332c-0.657,0-1.224-0.116-1.7-0.349
		s-0.867-0.55-1.173-0.952c-0.306-0.402-0.53-0.872-0.671-1.411c-0.142-0.538-0.212-1.107-0.212-1.708
		c0-0.566,0.082-1.113,0.247-1.641c0.164-0.527,0.405-0.991,0.723-1.395c0.317-0.401,0.711-0.722,1.181-0.96
		s1.012-0.357,1.624-0.357c0.578,0,1.085,0.108,1.521,0.323c0.436,0.216,0.802,0.578,1.097,1.088h0.034v-1.173h2.295v8.229
		C76.06,79.29,76.011,79.692,75.915,80.146z M72.608,77.222c0.261-0.136,0.476-0.316,0.646-0.544
		c0.17-0.227,0.297-0.484,0.382-0.773s0.127-0.592,0.127-0.909c0-0.362-0.034-0.706-0.102-1.028
		c-0.068-0.323-0.182-0.609-0.34-0.858c-0.159-0.25-0.368-0.448-0.629-0.596c-0.261-0.146-0.589-0.221-0.986-0.221
		c-0.34,0-0.632,0.068-0.875,0.204c-0.244,0.136-0.448,0.32-0.612,0.553c-0.164,0.232-0.283,0.498-0.357,0.799
		c-0.074,0.3-0.11,0.615-0.11,0.943c0,0.317,0.031,0.632,0.093,0.943c0.062,0.312,0.17,0.593,0.323,0.842s0.354,0.453,0.604,0.612
		c0.249,0.158,0.561,0.237,0.935,0.237C72.047,77.426,72.348,77.358,72.608,77.222z"/>
	<path fill="#00BCF2" d="M80.581,77.392c0.363,0.352,0.884,0.527,1.564,0.527c0.487,0,0.907-0.122,1.258-0.365
		c0.351-0.244,0.566-0.502,0.646-0.773h2.125c-0.34,1.054-0.862,1.808-1.564,2.261s-1.553,0.68-2.55,0.68
		c-0.691,0-1.315-0.11-1.87-0.331s-1.026-0.536-1.411-0.943c-0.386-0.408-0.683-0.896-0.893-1.462
		c-0.21-0.567-0.314-1.19-0.314-1.87c0-0.657,0.107-1.27,0.323-1.836c0.215-0.567,0.521-1.057,0.918-1.471
		c0.396-0.414,0.87-0.739,1.419-0.978s1.159-0.357,1.828-0.357c0.748,0,1.399,0.145,1.955,0.434
		c0.555,0.289,1.011,0.678,1.369,1.165c0.357,0.487,0.614,1.043,0.773,1.666c0.159,0.623,0.215,1.274,0.17,1.955h-6.341
		C80.02,76.474,80.218,77.041,80.581,77.392z M83.31,72.768c-0.289-0.316-0.729-0.476-1.317-0.476c-0.386,0-0.706,0.065-0.96,0.195
		c-0.255,0.131-0.459,0.292-0.612,0.484c-0.153,0.193-0.261,0.397-0.323,0.612c-0.062,0.216-0.1,0.408-0.11,0.578h3.927
		C83.8,73.55,83.599,73.085,83.31,72.768z"/>
</g>
</svg>
