
<svg width="400px" height="200px" viewBox="0 0 400 200" version="1.1" xmlns="http://www.w3.org/2000/svg" xmlns:xlink="http://www.w3.org/1999/xlink">
    <!-- Generator: Sketch 40.1 (33804) - http://www.bohemiancoding.com/sketch -->
    <desc>Created with Sketch.</desc>
    <defs></defs>
    <rect id="Rectangle-path" stroke="#00AEEF" stroke-width="3" fill="none" x="1.5" y="1.583" width="396.667" height="196.587"></rect>
    <path d="M89.6696616,17.4678647 C90.151575,14.9645603 90.4711169,14.5394518 91.0898413,13.6807188 C91.481339,13.1375943 91.5632346,12.7339323 91.5632346,12.2605391 C91.5632346,11.7871459 91.9533092,11.7408007 92.510021,10.8403594 C92.7590264,10.4376438 92.545997,10.0746927 92.9834143,9.89357293 C93.6021388,9.63737109 93.4568075,8.94678647 93.9302007,8.94678647 C94.403594,8.94678647 94.731656,8.72959318 95.3503804,8.47339323 C95.7877977,8.2922247 96.2971669,8 96.7705601,8 C97.2439534,8 97.2439534,8.47339323 97.2439534,8.94678647 C97.2439534,9.4201797 97.7173466,9.89357293 97.7173466,10.8403594 C97.7173466,11.3137526 97.4683413,11.8578235 97.7173466,12.2605391 C98.2740509,13.1609804 98.8028368,12.8725892 99.1375263,13.2073256 C99.4722158,13.5420619 99.7496233,13.8193757 100.084313,14.154112 C100.419002,14.4888484 101.031099,14.154112 101.504492,14.154112 L102.924672,14.154112 L104.818245,14.154112 C105.291638,14.154112 106.238425,14.6275053 106.711818,14.6275053 C107.185211,14.6275053 107.513269,14.8446985 108.131998,15.1008985 C108.569415,15.2820183 109.552177,15.1008985 110.025571,15.1008985 C110.498964,15.1008985 111.008333,14.9197318 111.44575,15.1008985 C112.064479,15.3570984 112.392537,15.5742917 112.86593,15.5742917 L114.28611,15.5742917 C114.759503,15.5742917 115.245675,15.9388968 115.706289,16.047685 C116.736391,16.2908647 117.126469,16.5210782 117.599862,16.5210782 C118.073256,16.5210782 118.824057,15.8515586 119.493435,16.5210782 C119.828125,16.8558145 120.440222,16.9944714 120.913615,16.9944714 L122.807188,16.9944714 C123.280581,16.9944714 124.227368,17.4678647 124.700761,17.4678647 C125.174154,17.4678647 126.607112,17.8324698 126.594334,17.9412579 C126.581556,18.0499954 127.54112,18.4146511 128.487907,17.9412579 C129.434693,17.4678647 129.980039,17.5789208 130.854873,17.9412579 C131.473601,18.1974578 131.801659,18.4146511 132.275053,18.4146511 C132.748446,18.4146511 133.549897,18.6318444 134.168626,18.8880444 C134.606039,19.0691641 135.151392,18.7068777 135.588805,18.8880444 C136.207534,19.1442443 137.008985,19.3614376 137.482378,19.3614376 L138.902558,19.3614376 C139.849344,19.3614376 140.796131,19.8348308 141.269524,19.8348308 L143.163097,19.8348308 C143.63649,19.8348308 144.387291,19.1653112 145.05667,19.8348308 C145.391359,20.1695672 146.021919,20.0807122 147.423636,20.3082241 C148.901097,20.5481388 149.317209,20.7815236 150.263995,20.7815236 C151.210782,20.7815236 151.684175,21.2549168 152.157568,21.2549168 L154.997928,21.2549168 C155.471321,21.2549168 155.799379,21.4722043 156.418107,21.72831 C157.292934,22.0909288 157.851073,21.6194282 158.31168,21.72831 C159.341782,21.9716341 159.73186,22.2017033 160.205253,22.2017033 L163.045613,22.2017033 C163.519006,22.2017033 163.992399,22.6750965 164.939186,22.6750965 L167.779545,22.6750965 C168.252938,22.6750965 168.643017,22.9051656 169.673118,23.1484897 C170.133726,23.2573683 170.619904,23.1484897 171.093298,23.1484897 C171.566691,23.1484897 172.040084,23.621883 172.986871,23.621883 L174.880444,23.621883 L176.774016,23.621883 C177.24741,23.621883 177.575468,23.8391704 178.194196,24.0952762 C178.631617,24.2765839 179.140983,24.0952762 179.614376,24.0952762 L181.034556,24.0952762 C181.981342,24.0952762 181.981342,24.5686694 183.401522,24.5686694 C183.874915,24.5686694 184.821701,25.0420627 185.768488,25.0420627 L187.662061,25.0420627 L189.555634,25.0420627 C190.029027,25.0420627 190.029027,25.5154559 190.50242,25.5154559 C190.975813,25.5154559 191.777265,25.7327434 192.395993,25.9888491 C192.833414,26.1701568 193.34278,25.9888491 193.816173,25.9888491 L195.709746,25.9888491 L197.129926,25.9888491 C197.603319,25.9888491 198.076712,26.4622424 199.023498,26.4622424 C199.496892,26.4622424 199.82495,26.6795298 200.443678,26.9356356 C200.881099,27.1169433 201.863858,26.9356356 202.337251,26.9356356 L203.757431,26.9356356 C203.757431,26.9356356 203.00663,27.6050108 202.337251,26.9356356 C202.002562,26.6009461 202.337251,25.9888491 202.810644,25.5154559 C203.284038,25.0420627 203.612096,24.8247752 204.230824,24.5686694 C205.105651,24.2065203 205.213583,24.2765839 205.651004,24.0952762 C206.269732,23.8391704 206.736494,23.2871935 207.071183,23.621883 C207.405873,23.9565687 207.68328,24.7073732 208.01797,25.0420627 C208.352659,25.3767484 208.783449,25.0780386 208.964756,25.5154559 C209.220855,26.1341804 209.693786,26.4878023 209.911543,27.4090288 C210.154871,28.4391301 210.52364,28.494519 210.858329,28.8292085 C211.193019,29.1638942 211.659781,29.5198892 212.278509,29.775995 C212.71593,29.9573027 213.225295,30.2493882 213.698689,30.2493882 C214.172082,30.2493882 214.310786,30.388092 214.645475,30.7227814 C214.980165,31.0574671 215.257572,31.3348784 215.592262,31.6695679 C215.926951,32.0042536 216.677752,31.8082717 217.012441,32.1429611 C217.347131,32.4776468 217.521807,32.4350433 217.959228,32.6163544 C218.577956,32.8724601 218.906014,33.0897476 219.379407,33.0897476 L220.799587,33.0897476 C221.27298,33.0897476 221.885077,32.9510401 222.219767,32.6163544 C222.554456,32.2816649 223.305257,32.9510401 223.639947,32.6163544 C223.974636,32.2816649 224.11334,32.1429611 224.586733,32.1429611 C225.060126,32.1429611 225.672223,32.4776468 226.006913,32.1429611 C226.341602,31.8082717 226.334971,31.4522804 226.953699,31.1961747 C227.39112,31.0148637 227.900486,30.7227814 228.373879,30.7227814 C228.847272,30.7227814 229.17533,30.505494 229.794059,30.2493882 C230.231479,30.0680772 231.214238,29.775995 231.687632,29.775995 L233.581204,29.775995 L235.001384,29.775995 L237.36835,29.775995 C237.841744,29.775995 238.351109,29.594684 238.78853,29.775995 C239.407258,30.0321007 239.735316,30.2493882 240.20871,30.7227814 C240.682103,31.1961747 241.191469,31.4882569 241.628889,31.6695679 C242.247618,31.9256737 242.240986,32.2816649 242.575676,32.6163544 C242.910365,32.9510401 243.119599,32.8407423 243.522462,33.0897476 C244.42286,33.6464628 244.686543,34.365069 244.942642,34.9833205 C245.12395,35.4207378 245.416035,35.4567138 245.889428,35.930107 C246.362822,36.4035002 246.872188,36.6955824 247.309608,36.8768935 C247.928336,37.1329992 248.729788,37.8236799 249.203181,38.2970732 C249.676574,38.7704664 249.815278,38.909163 250.149968,39.2438596 C250.484657,39.5785453 251.109539,39.608371 251.570147,39.7172529 C252.600249,39.960577 252.844992,40.4079336 253.46372,40.6640393 C253.901141,40.8453504 254.423292,41.0285507 254.8839,41.1374326 C255.914001,41.3807567 256.442783,41.7495262 256.777473,42.0842152 C257.112162,42.4189047 257.286839,42.3763008 257.724259,42.5576085 C258.342988,42.8137142 258.671046,43.0310017 258.671046,43.5043949 C258.671046,43.9777882 259.144439,44.9245746 259.144439,45.3979679 C259.144439,46.3447543 259.361734,46.6732892 259.617832,47.2915408 C259.79914,47.7289614 259.835127,48.0934689 260.091225,48.7117205 C260.272533,49.1491411 259.756536,49.7972107 260.091225,50.1319002 C260.425915,50.4665897 260.229929,50.7439972 260.564619,51.0786867 C260.899308,51.4133762 261.176716,51.2173904 261.511405,51.5520799 C261.846095,51.8867694 261.650109,52.1641769 261.984798,52.4988664 C262.319488,52.8335559 262.123502,53.1109633 262.458192,53.4456528 C262.792881,53.7803423 262.931585,54.3924393 262.931585,54.8658325 C262.931585,55.3392258 263.404978,55.812619 263.404978,56.2860122 C263.404978,56.7594055 263.622273,57.0879404 263.878371,57.7061919 C264.059679,58.1436125 263.878371,58.6529784 263.878371,59.1263716 L263.878371,60.5465513 L263.878371,62.4401243 L263.878371,64.3336972 L263.878371,65.7538769 C263.878371,66.7006634 264.54775,67.4514646 263.878371,68.1208431 C263.543682,68.4555325 263.266274,68.73294 262.931585,69.0676295 C262.596895,69.402319 262.792881,69.6797265 262.458192,70.014416 C262.123502,70.3491055 261.984798,70.4878092 261.984798,70.9612025 L261.984798,72.3813822 C261.984798,72.8547754 262.458192,72.8547754 262.931585,72.8547754 L265.298551,72.8547754 C265.771944,72.8547754 266.100002,72.6374879 266.718731,72.3813822 C267.156151,72.2000744 267.192124,71.9079889 267.665517,71.9079889 C268.13891,71.9079889 268.829598,72.053324 269.085697,71.4345957 C269.267005,70.9971822 269.55909,70.9612025 270.032483,70.4878092 C270.505877,70.014416 270.541849,69.7223376 270.97927,69.5410228 C271.597998,69.284917 271.256678,68.7902216 271.926056,68.1208431 C272.260746,67.7861536 272.872843,67.6474498 273.346236,67.1740566 C273.819629,66.7006634 273.958333,66.5619596 274.293022,66.2272701 C274.627712,65.8925806 275.094474,65.5365894 275.713202,65.2804837 C276.150623,65.0991759 276.798692,65.1417799 277.133382,64.8070904 C277.468071,64.4724009 277.272086,64.1949934 277.606775,63.860304 C277.94145,63.5256145 278.218887,63.7216002 278.553562,63.3869107 C278.888236,63.0522212 279.026955,62.4401243 279.026955,61.966731 C279.026955,61.4933378 279.500348,61.4933378 279.500348,61.0199446 C279.500348,60.5465513 280.169727,59.7957501 279.500348,59.1263716 C279.165673,58.7916821 278.888236,58.9876679 278.553562,58.6529784 C277.884183,57.9835999 278.372254,57.196826 278.553562,56.7594055 C278.809675,56.1411539 279.026955,55.812619 279.500348,55.812619 C279.973741,55.812619 280.11246,55.6739153 280.447134,55.3392258 C280.781809,55.0045363 281.393921,55.3392258 281.867314,55.3392258 L283.287494,55.3392258 C283.760887,55.3392258 284.088945,55.1219383 284.707674,54.8658325 C285.145094,54.6845248 285.319785,54.7271288 285.65446,54.3924393 C285.989135,54.0577498 286.601247,54.3924393 287.07464,53.9190461 C287.548033,53.4456528 287.876091,53.2283653 288.494819,52.9722596 C288.93224,52.7909519 289.106931,52.8335559 289.441606,52.4988664 C289.776281,52.1641769 289.733691,51.9895005 289.914999,51.5520799 C290.171112,50.9338283 290.388392,50.6052934 290.388392,50.1319002 C290.388392,49.1851137 290.605672,48.3836623 290.861786,47.764934 C291.043093,47.3275206 291.153871,47.2555681 291.335179,46.8181476 C291.591292,46.199896 291.94729,46.2060506 292.281965,45.8713611 C292.61664,45.5366716 292.894077,45.7326574 293.228752,45.3979679 C293.563427,45.0632784 294.030203,44.7072872 294.648931,44.4511814 C295.086352,44.2698737 295.734436,43.8390844 296.069111,43.5043949 C296.403786,43.1697055 296.681223,42.892298 297.015898,42.5576085 C297.350572,42.222919 297.489291,42.0842152 298.436077,42.0842152 C298.909471,42.0842152 299.382864,41.610822 299.856257,41.610822 C300.32965,41.610822 300.839016,41.3187436 301.276437,41.1374326 C301.895165,40.8813268 302.223223,40.6640393 302.696616,40.6640393 C303.17001,40.6640393 303.17001,40.1906461 304.116796,40.1906461 C304.590189,40.1906461 305.202301,40.5253318 305.536976,40.1906461 C305.871651,39.8559495 306.010369,39.7172529 306.483762,39.7172529 C306.957156,39.7172529 306.957156,39.2438596 307.430549,39.2438596 C307.903942,39.2438596 308.04266,39.1051521 308.377335,38.7704664 C308.71201,38.4357698 308.850728,38.2970732 309.324122,38.2970732 C309.797515,38.2970732 309.936233,38.1583656 310.270908,37.8236799 C310.605583,37.4889833 310.562994,36.8409175 310.744301,36.4035002 C311.000415,35.7852487 311.356413,35.7913995 311.691088,35.4567138 C312.025763,35.1220172 311.691088,34.5099273 311.691088,34.0365341 L311.691088,32.1429611 L311.691088,30.7227814 L311.691088,28.8292085 C311.691088,28.3558153 311.328935,27.8104663 311.691088,26.9356356 C311.947201,26.317384 312.3032,25.8501416 312.637874,25.5154559 C312.972549,25.1807664 313.111268,24.0952762 313.111268,23.621883 C313.111268,23.1484897 313.584661,23.1484897 313.584661,22.6750965 C313.584661,22.2017033 314.058054,21.2549168 314.058054,20.7815236 C314.058054,19.8348308 314.859505,19.6176375 315.478234,19.3614376 C315.915654,19.1802709 316.437791,18.9967818 316.898413,18.8880444 C317.928529,18.644814 318.390538,18.052314 319.26538,18.4146511 C319.884108,18.6708511 320.429446,19.2162943 320.685559,19.8348308 C320.866867,20.2721974 321.158953,20.7815236 321.632346,21.72831 C322.105739,22.6750965 322.579132,22.6750965 322.579132,23.1484897 C322.579132,23.621883 323.052525,24.0952762 323.052525,24.5686694 C323.052525,25.0420627 323.282605,25.9055305 323.525919,26.9356356 C323.63479,27.3962472 323.743199,27.7375637 323.999312,28.3558153 C324.18062,28.7932287 324.216592,29.1577434 324.472705,29.775995 C324.654013,30.2134084 325.084817,30.388092 325.419492,30.7227814 C325.754166,31.0574671 325.711577,31.2321507 325.892885,31.6695679 C326.148998,32.2882924 326.031603,32.7550581 326.366278,33.0897476 C326.700953,33.4244333 326.97839,33.2284514 327.313065,33.5631408 C327.647739,33.8978265 327.131757,34.5459033 327.313065,34.9833205 C327.569178,35.602045 327.786458,35.930107 327.786458,36.4035002 L327.786458,38.2970732 C327.786458,39.2438596 327.647739,39.3825563 327.313065,39.7172529 C326.97839,40.0519386 327.035657,39.9946533 326.366278,40.6640393 C326.031603,40.998725 325.892885,41.1374326 324.946098,41.1374326 C324.472705,41.1374326 324.66869,41.4148367 323.999312,42.0842152 C323.664637,42.4189047 323.052525,42.0842152 322.579132,42.0842152 C322.105739,42.0842152 321.415066,42.2295503 321.158953,41.610822 C320.977645,41.1734086 320.685559,41.1374326 320.685559,42.0842152 L320.685559,43.5043949 C320.685559,43.9777882 320.212166,43.9777882 319.738773,44.4511814 C319.26538,44.9245746 318.756014,45.2166602 318.318593,45.3979679 C317.699865,45.6540736 317.154527,45.7265028 316.898413,46.3447543 C316.717106,46.7821749 316.898413,47.764934 316.898413,48.7117205 L316.898413,50.1319002 L316.898413,52.0254731 C316.898413,52.4988664 317.079721,53.0082394 316.898413,53.4456528 C316.6423,54.0643811 316.6423,54.7209742 316.898413,55.3392258 C317.079721,55.7766463 317.079721,56.321992 316.898413,56.7594055 C316.6423,57.3781337 316.6423,57.5613336 316.898413,58.1795852 C317.079721,58.6170057 317.8452,58.6529784 318.318593,59.1263716 C318.791986,59.5997649 318.838389,59.9903129 319.738773,60.5465513 C320.212166,60.0731581 320.212166,59.5997649 320.212166,59.1263716 C320.212166,58.6529784 320.127421,59.2679214 321.632346,60.0731581 C322.049888,60.2965997 322.105739,60.5465513 322.579132,61.0199446 C323.052525,61.4933378 323.269805,61.8218727 323.525919,62.4401243 C323.707226,62.8775448 323.525919,63.3869107 323.525919,63.860304 C323.525919,64.3336972 323.052525,64.3336972 322.579132,64.3336972 C322.105739,64.3336972 321.304288,64.5509847 320.685559,64.8070904 C320.248139,64.9884052 319.600054,65.1417799 319.26538,64.8070904 C318.596001,64.1377119 318.937321,63.6430165 318.318593,63.3869107 C317.881173,63.205603 317.8452,62.9135175 317.371807,62.9135175 C316.42502,62.9135175 316.286302,63.0522212 315.951627,63.3869107 C315.616952,63.7216002 315.339515,63.9990077 315.00484,64.3336972 C314.670166,64.6683867 314.203389,64.5509847 313.584661,64.8070904 C313.14724,64.9884052 312.025763,64.9457942 311.691088,65.2804837 C311.356413,65.6151731 310.605583,65.4191874 310.270908,65.7538769 C309.936233,66.0885664 309.797515,67.1740566 309.324122,67.1740566 C308.850728,67.1740566 308.71201,67.7861536 308.377335,68.1208431 C308.04266,68.4555325 307.686662,68.449378 307.430549,69.0676295 C307.249241,69.5050501 306.993128,70.1957308 307.430549,70.014416 C308.049277,69.7583102 308.447865,69.7900281 308.850728,69.5410228 C309.751112,68.9847843 309.797515,68.5942363 310.270908,68.5942363 C310.744301,68.5942363 311.545753,67.9035556 312.164481,67.6474498 C313.039322,67.2853045 313.111268,68.1208431 313.111268,68.5942363 C313.111268,69.0676295 313.445942,69.6797265 313.111268,70.014416 C312.441889,70.6837945 312.025763,70.1531197 311.691088,70.4878092 C311.021709,71.1571877 311.217695,71.4345957 310.744301,71.4345957 C310.270908,71.4345957 309.761542,71.253288 309.324122,71.4345957 C308.705393,71.6907014 308.238617,71.5732994 307.903942,71.9079889 C307.569267,72.2426784 307.430549,72.3813822 306.957156,72.3813822 C306.483762,72.3813822 306.155704,72.5986696 305.536976,72.8547754 C305.099555,73.0360902 304.451471,72.5200859 304.116796,72.8547754 C303.782121,73.1894649 303.935488,73.8375416 304.116796,74.2749551 C304.372909,74.8936834 304.807469,75.0768832 305.063583,75.6951348 C305.24489,76.1325553 305.280863,76.4970629 305.536976,77.1153145 C305.718284,77.552735 305.536976,78.5354942 305.536976,79.4822806 L305.536976,80.9024603 C305.536976,81.3758536 304.590189,81.3758536 304.590189,81.8492468 C304.590189,82.7960333 304.554217,83.561512 304.116796,83.7428197 C303.498068,83.9989255 304.070393,85.0801542 303.17001,85.6363927 C302.767146,85.885398 302.223223,85.6363927 301.74983,85.6363927 C301.276437,85.6363927 301.276437,84.6896062 300.803044,84.6896062 C300.32965,84.6896062 300.510958,84.1802403 300.32965,83.7428197 C300.073537,83.1245682 299.638977,82.9413683 299.382864,82.32264 C299.201556,81.8852266 298.909471,80.9024603 298.909471,81.3758536 C298.909471,81.8492468 299.600144,81.7043885 299.856257,82.32264 C300.037565,82.7600606 300.073537,83.1245682 300.32965,83.7428197 C300.510958,84.1802403 301.033124,84.6062914 301.276437,85.6363927 C301.385308,86.0970076 301.74983,86.1097859 301.74983,86.5831791 L301.74983,88.0033588 C301.74983,88.9501453 302.223223,88.9501453 302.223223,89.4235385 L302.223223,91.3171115 L302.223223,93.2106844 L302.223223,94.6308641 L302.223223,96.0510438 C302.223223,96.524437 301.895165,96.7417316 301.276437,96.9978303 C300.839016,97.179138 300.664325,96.3857333 300.32965,96.0510438 C299.994975,95.7163543 299.717539,94.9655536 299.382864,94.6308641 C298.713485,93.9614856 299.090778,93.1747117 298.909471,92.7372912 C298.653357,92.1190396 298.297359,91.651801 297.962684,91.3171115 C297.293306,90.647733 297.745404,90.0422668 297.489291,89.4235385 C297.307983,88.9861251 297.272011,88.6220871 297.015898,88.0033588 C297.015898,88.9501453 297.124769,89.4363239 297.015898,89.8969318 C296.772584,90.9270402 296.403786,90.982422 296.069111,91.3171115 C295.734436,91.651801 295.791703,91.5945194 295.122325,92.2638979 C294.78765,92.5985874 294.175538,92.7372912 294.175538,93.2106844 L294.175538,94.6308641 C294.175538,95.1042573 294.78765,95.2429611 295.122325,95.5776506 C295.457,95.9123401 295.450383,96.2683384 296.069111,96.524437 C296.506532,96.7057447 296.542504,96.9978303 297.015898,96.9978303 C297.489291,96.9978303 297.962684,97.4712235 298.436077,97.9446167 C298.909471,98.41801 298.909471,98.8914032 298.909471,99.3647964 C298.909471,99.8381897 298.574796,100.92368 298.909471,101.258369 C299.244145,101.593059 299.89223,101.077062 300.32965,101.258369 C300.948379,101.514483 301.493717,102.060297 301.74983,102.678549 C302.111983,103.553376 302.440503,103.95387 302.696616,104.572122 C302.877924,105.009543 302.696616,105.518908 302.696616,106.465695 L302.696616,107.885875 C302.696616,108.359268 302.084505,108.497972 301.74983,108.832661 C301.415155,109.167351 301.421772,109.996742 300.803044,110.252841 C300.365623,110.434148 300.148343,111.235614 300.32965,111.67302 C300.841848,112.91 301.095129,113.129187 301.276437,113.566593 C301.53255,114.185322 301.931138,114.549367 301.74983,114.986773 C301.493717,115.605501 301.026478,115.516032 300.803044,115.93356 C299.997807,117.438484 299.673042,117.788314 298.436077,118.300526 C297.998657,118.481833 297.926711,118.592611 297.489291,118.773919 C296.870563,119.030032 296.542504,119.247312 296.069111,119.720705 C295.595718,120.194099 295.26766,120.411393 294.648931,120.667492 C294.211511,120.8488 293.563427,120.806196 293.228752,121.140885 C292.559373,121.810264 292.936666,122.597052 292.755359,123.034458 C292.499245,123.653186 292.143247,123.646555 291.808572,123.981245 C291.473897,124.315934 291.669854,124.593342 291.335179,124.928031 C291.000504,125.26272 290.02387,124.940816 289.914999,125.401424 C289.671686,126.431526 289.441606,126.821604 288.968213,126.821604 C288.494819,126.821604 288.829494,127.433701 288.494819,127.76839 C288.160145,128.10308 288.202734,128.277771 288.021426,128.715177 C287.765313,129.333905 287.409315,129.327274 287.07464,129.661963 C286.405261,130.331342 286.601247,131.082143 286.601247,131.555536 C286.601247,132.028929 286.462528,132.641026 286.127853,132.975716 C285.793178,133.310405 285.43718,134.251037 285.181067,134.869289 C284.999759,135.306709 285.326402,135.904129 284.707674,136.762862 C284.316165,137.305845 284.0042,137.626333 283.760887,138.656435 C283.543607,139.578127 283.287494,140.076614 283.287494,140.550008 C283.287494,141.023401 283.622169,141.635498 283.287494,141.970187 C282.952819,142.304877 283.483479,143.194382 282.814101,143.86376 C282.479426,144.19845 282.123428,144.192295 281.867314,144.810547 C281.686006,145.247967 281.393921,145.757333 281.393921,146.230726 C281.393921,146.70412 280.920528,147.177513 280.920528,147.650906 L280.920528,149.544479 C280.920528,150.017872 281.137808,150.346407 281.393921,150.964659 C281.575229,151.402079 281.686006,151.947432 281.867314,152.384839 C282.123428,153.003567 282.557987,153.186767 282.814101,153.805018 C282.995408,154.242439 283.287494,154.751805 283.287494,155.225198 C283.287494,155.698591 283.760887,155.698591 283.760887,156.171984 C283.760887,156.645378 284.23428,157.118771 284.23428,157.592164 C284.23428,158.065557 284.526366,158.101544 284.707674,158.538951 C284.963787,159.157679 285.262952,159.416147 285.65446,159.95913 C286.273188,160.817863 285.910573,161.404881 286.127853,162.326096 C286.371167,163.356198 286.965769,163.759061 287.07464,164.219669 C287.317953,165.249771 287.659273,165.711809 288.021426,166.586635 C288.27754,167.205364 288.576704,167.463832 288.968213,168.006815 C289.586941,168.865548 289.260298,169.462982 289.441606,169.900388 C289.697719,170.519116 290.388392,171.320568 290.388392,172.267354 C290.388392,172.740748 290.861786,173.214141 290.861786,173.687534 C290.861786,174.160927 291.552459,175.436249 291.808572,176.0545 C292.170725,176.929327 292.281965,177.001287 292.281965,177.47468 C292.281965,178.421466 292.420684,179.033563 292.755359,179.368253 C293.090033,179.702942 292.755359,180.788432 292.755359,181.261826 L292.755359,183.155399 C292.755359,183.628792 292.936666,184.138172 292.755359,184.575578 C292.499245,185.194307 291.669854,184.714282 291.335179,185.048972 C291.000504,185.383661 290.861786,185.522365 290.388392,185.522365 L288.968213,185.522365 L287.548033,185.522365 C287.07464,185.522365 287.07464,185.048972 286.601247,184.575578 C286.127853,184.102185 286.273188,183.411512 285.65446,183.155399 C285.217039,182.974091 285.515742,182.543302 285.181067,182.208612 C284.846392,181.873923 284.671701,181.916527 284.23428,181.735219 C283.615552,181.47912 283.251521,180.96974 282.814101,180.788432 C282.195372,180.532334 281.650034,179.986981 281.393921,179.368253 C281.212613,178.930846 280.628442,178.858887 280.447134,178.421466 C280.191021,177.803215 279.583677,177.901684 279.026955,177.001287 C278.777949,176.5989 278.956425,176.303505 278.553562,176.0545 C277.653178,175.498269 277.788083,175.071741 277.606775,174.63432 C277.350676,174.016069 276.743303,174.114538 276.186595,173.214141 C275.93759,172.811754 275.969301,172.412689 275.713202,171.793961 C275.531894,171.356555 275.239809,171.320568 275.239809,170.847175 C275.239809,170.373781 274.766416,169.900388 274.766416,169.426995 C274.766416,168.953602 274.293022,168.480208 274.293022,168.006815 L274.293022,165.639849 L274.293022,164.219669 L274.293022,162.79949 C274.293022,162.326096 274.627712,161.713999 274.293022,161.37931 C273.958333,161.04462 273.928515,160.893131 273.819629,160.432523 C273.576301,159.402422 272.872843,159.485737 272.872843,159.012344 C272.872843,158.538951 272.734139,158.400247 272.39945,158.065557 C271.730071,157.396179 270.97927,158.065557 270.032483,158.065557 C269.55909,158.065557 269.231032,157.848277 268.612304,157.592164 C268.174883,157.410856 267.275439,158.019169 266.718731,157.118771 C266.469725,156.716384 265.633241,156.980067 265.298551,156.645378 C264.963862,156.310688 264.970493,155.954704 264.351765,155.698591 C263.914344,155.517283 263.404978,155.698591 262.458192,155.698591 C261.511405,155.698591 261.038012,156.171984 260.564619,156.171984 L259.144439,156.171984 C258.671046,156.171984 258.058949,156.506674 257.724259,156.171984 C257.38957,155.837295 256.922808,155.481311 256.30408,155.225198 C255.429253,154.86306 254.877746,154.827549 254.410507,154.751805 C252.933045,154.512277 252.516934,153.805018 252.043541,153.805018 L249.676574,153.805018 L246.836215,153.805018 L244.942642,153.805018 C243.995856,153.805018 243.48649,153.62371 243.049069,153.805018 C242.430341,154.061132 242.102283,154.278411 241.155496,154.278411 L239.735316,154.278411 C239.261923,154.278411 238.279164,154.097104 237.841744,154.278411 C237.223015,154.534525 236.894957,154.751805 236.421564,154.751805 C235.948171,154.751805 235.860117,155.079863 235.001384,155.698591 C234.458401,156.090085 233.581204,156.645378 233.581204,157.118771 C233.581204,157.592164 234.193301,157.257475 234.527991,157.592164 C234.86268,157.926854 234.666695,158.204261 235.001384,158.538951 C235.336074,158.87364 235.802836,158.756245 236.421564,159.012344 C236.858984,159.193651 237.507054,159.624441 237.841744,159.95913 C238.176433,160.29382 237.980447,161.518014 238.315137,161.852703 C238.649826,162.187393 238.78853,162.326096 238.78853,162.79949 C238.78853,163.272883 238.78853,163.746276 238.315137,164.219669 C237.841744,164.693063 236.894957,164.693063 236.421564,164.693063 C235.474777,164.693063 234.86268,164.554359 234.527991,164.219669 C234.193301,163.88498 234.235905,163.710303 234.054598,163.272883 C233.798499,162.654631 233.107811,162.79949 232.634418,162.326096 C232.161025,161.852703 231.832967,162.069998 231.214238,162.326096 C230.776818,162.507404 230.412787,162.543391 229.794059,162.79949 C229.356638,162.980797 228.930587,163.502948 227.900486,163.746276 C227.439878,163.855162 226.953699,163.746276 226.480306,163.746276 C226.006913,163.746276 225.678855,162.711436 225.060126,161.852703 C224.668632,161.30972 223.974636,161.713999 223.639947,161.37931 C223.305257,161.04462 223.166553,160.905917 222.69316,160.905917 C222.219767,160.905917 221.710401,161.087224 221.27298,160.905917 C220.654252,160.649818 219.852801,160.432523 219.379407,160.432523 C217.959228,160.432523 217.63117,160.649818 217.012441,160.905917 C216.575021,161.087224 216.065655,161.37931 215.118868,161.37931 L213.225295,161.37931 L211.805116,161.37931 L210.384936,161.37931 C209.911543,161.37931 209.87557,161.671395 209.43815,161.852703 C208.819421,162.108816 208.352659,162.4648 208.01797,162.79949 C207.348591,163.468868 207.544577,163.746276 207.071183,163.746276 C206.59779,163.746276 206.124397,164.219669 205.651004,164.219669 C205.17761,164.219669 204.668245,164.511755 204.230824,164.693063 C203.612096,164.949176 203.618727,165.30516 203.284038,165.639849 C202.949348,165.974539 202.728745,166.043652 202.337251,166.586635 C201.718523,167.445368 201.793328,167.75781 201.390465,168.006815 C200.490067,168.563523 200.589013,169.170896 199.970285,169.426995 C199.532864,169.608303 198.514133,169.71908 198.076712,169.900388 C197.457984,170.156501 197.129926,170.373781 196.656532,170.373781 C196.183139,170.373781 195.855081,170.591076 195.236353,170.847175 C194.361526,171.20979 194.150862,170.985878 193.816173,171.320568 C193.146794,171.989946 193.524087,172.303341 193.34278,172.740748 C193.086681,173.359476 192.869386,173.687534 192.869386,174.160927 C192.869386,174.63432 193.538765,175.385122 192.869386,176.0545 C192.534697,176.38919 192.165928,176.444579 191.9226,177.47468 C191.813714,177.935288 192.257289,179.033563 191.9226,179.368253 C191.58791,179.702942 191.449207,180.788432 191.449207,181.735219 L191.449207,183.155399 L191.449207,184.575578 L191.449207,186.469151 C191.449207,187.415938 191.449207,187.889331 190.50242,187.889331 C190.029027,187.889331 189.011711,188.138336 188.608847,187.889331 C187.70845,187.3331 187.175882,187.05143 186.715274,186.942545 C185.685173,186.699217 184.544293,187.13853 183.874915,186.469151 C183.540225,186.134462 182.892156,185.703673 182.454735,185.522365 C181.217755,185.010153 180.817261,184.720913 180.561162,184.102185 C180.379855,183.664779 180.561162,183.155399 180.561162,182.682005 L180.561162,181.261826 C180.561162,180.315039 180.087769,178.89486 180.087769,178.421466 C180.087769,177.948073 178.910917,176.137815 178.667589,175.107714 C178.558704,174.647106 178.194196,174.160927 177.720803,173.214141 C177.24741,172.267354 176.774016,171.793961 176.300623,171.320568 C175.82723,170.847175 175.82723,169.900388 175.353837,169.426995 C174.880444,168.953602 174.663149,168.625543 174.40705,168.006815 C174.044897,167.131988 173.716362,167.205364 173.460264,166.586635 C173.278956,166.149229 173.32156,165.027752 172.986871,164.693063 C172.652181,164.358373 172.762483,164.14914 172.513477,163.746276 C171.956769,162.845878 171.747999,162.763517 171.566691,162.326096 C171.310592,161.707845 170.954594,161.240606 170.619904,160.905917 C170.285215,160.571227 169.531568,161.403927 168.726332,160.905917 C167.825934,160.349685 167.743572,160.140438 167.306152,159.95913 C166.687424,159.703032 166.359365,159.485737 165.885972,159.485737 C165.412579,159.485737 164.903213,159.304429 164.465792,159.485737 C163.847064,159.74185 163.519006,160.432523 163.045613,160.905917 C162.098826,161.852703 161.874438,162.397103 161.625433,162.79949 C161.068725,163.699887 160.06655,163.411587 159.73186,163.746276 C159.397171,164.080966 159.258467,164.693063 158.785074,164.693063 C158.31168,164.693063 158.128481,164.258965 156.891501,163.746276 C156.45408,163.564968 156.19372,163.202353 155.944714,162.79949 C155.388006,161.899092 154.961948,162.034011 154.524535,161.852703 C153.905806,161.596605 153.439044,161.240606 153.104355,160.905917 C152.769665,160.571227 152.400896,160.515838 152.157568,159.485737 C152.04869,159.025129 151.684175,158.538951 151.684175,158.065557 C151.684175,157.592164 151.210782,156.645378 151.210782,156.171984 C151.210782,155.225198 150.737389,154.751805 150.737389,154.278411 C150.737389,153.805018 150.302814,153.621818 149.790602,152.384839 C149.428457,151.510012 149.317209,151.438052 149.317209,150.964659 C149.317209,150.491266 148.626528,150.636601 148.370423,150.017872 C148.189115,149.580466 147.679742,149.216421 147.423636,148.597693 C147.242328,148.160286 147.095578,148.036246 146.47685,147.177513 C146.085355,146.634529 145.391359,146.565416 145.05667,146.230726 C144.387291,145.561348 144.728612,145.06666 144.109883,144.810547 C143.67247,144.629239 143.163097,144.810547 142.689704,144.810547 C142.21631,144.810547 141.938903,145.006532 141.269524,144.337154 C140.934835,144.002464 140.796131,143.86376 140.322738,143.86376 L138.902558,143.86376 C138.429165,143.86376 137.919792,144.045068 137.482378,143.86376 C136.86365,143.607662 136.535592,143.390367 136.062198,143.390367 L134.642019,143.390367 C134.168626,143.390367 133.556529,143.055678 133.221839,143.390367 C132.88715,143.725057 132.748446,144.337154 132.748446,144.810547 C132.748446,145.28394 132.275053,145.757333 131.801659,145.757333 L129.908086,145.757333 C128.9613,145.757333 128.571222,145.527268 127.54112,145.28394 C127.080505,145.175069 126.594334,145.28394 125.647547,145.28394 C124.700761,145.28394 123.280581,144.810547 122.807188,144.810547 C122.333795,144.810547 121.822529,144.663319 120.440222,144.337154 C119.41012,144.093826 119.020042,143.86376 118.546649,143.86376 C117.126469,143.86376 116.179683,142.916974 115.706289,142.916974 C115.232896,142.916974 114.904838,142.699694 114.28611,142.443581 C113.848696,142.262273 112.86593,141.970187 112.392537,141.496794 C111.919144,141.023401 111.003595,140.481848 110.025571,140.076614 C108.642317,139.503813 107.511854,138.970292 106.238425,138.183042 C105.668931,137.831319 105.253766,137.058256 103.398065,136.289469 C102.523231,135.92733 102.123221,136.072189 101.504492,135.816075 C101.067075,135.634768 100.52173,135.52399 100.084313,135.342682 C99.4655845,135.086583 99.6109195,134.395896 99.6109195,133.922502 L99.6109195,131.082143 C99.6109195,130.135357 99.6109195,129.661963 99.1375263,129.661963 C98.1907398,129.661963 97.8626816,129.444683 97.2439534,129.18857 C96.8065361,129.007262 96.2971669,129.18857 95.8237737,129.18857 L92.9834143,129.18857 C92.510021,129.18857 91.5632346,128.715177 90.6164481,128.715177 C89.6696616,128.715177 89.1257319,128.964182 88.7228752,128.715177 C87.8224812,128.158945 87.7760887,127.294997 86.8293022,126.348211 C86.355909,125.874817 86.0638268,125.838845 85.8825158,125.401424 C85.62641,124.783173 85.743812,124.315934 85.4091225,123.981245 C85.0744331,123.646555 85.0446112,123.495066 84.9357293,123.034458 C84.6924052,122.004357 84.2450486,121.759613 83.9889428,121.140885 C83.8076318,120.703479 83.9070472,120.263689 83.5155496,119.720705 C82.8968251,118.861972 83.1874876,118.083246 82.5687632,117.827133 C82.1313947,117.645825 81.6219767,116.880346 81.6219767,116.406953 C81.6219767,115.93356 81.4833198,115.794856 81.1485835,115.460166 C80.8138471,115.125477 80.6751902,114.986773 80.201797,114.039987 C79.7284038,113.0932 79.4001051,112.87592 78.7816173,112.619807 C78.3442488,112.438499 77.8348308,112.619807 77.3614376,112.619807 C76.8880444,112.619807 76.8416992,112.229729 75.9412579,111.67302 C75.5385891,111.424015 74.9944714,111.67302 74.5210782,111.67302 C74.047685,111.67302 73.5742917,111.199627 73.5742917,110.726234 L73.5742917,108.832661 C73.5742917,107.885875 73.1008985,107.412481 73.1008985,106.465695 C73.1008985,105.992302 72.6275053,105.518908 72.6275053,105.045515 C72.6275053,104.098729 72.410312,103.297277 72.154112,102.678549 C71.9729454,102.241143 71.7197269,101.075169 71.2073256,99.8381897 C71.0261589,99.4007833 70.5037207,98.5013248 70.2605391,97.4712235 C70.1517529,97.0106157 69.9683144,96.4884643 69.7871459,96.0510438 C69.5309459,95.4327922 69.3137526,95.1042573 69.3137526,94.6308641 C69.3137526,93.6840776 70.0173575,93.7673996 70.2605391,92.7372912 C70.3693253,92.2766833 70.2605391,91.7905047 70.2605391,91.3171115 L70.2605391,89.4235385 C70.2605391,88.4767521 70.0793725,87.9673862 70.2605391,87.5299656 C70.516739,86.911714 70.7339323,86.5831791 70.7339323,86.1097859 C70.7339323,85.6363927 71.0962675,84.6176537 70.7339323,83.7428197 C70.4777324,83.1245682 70.2115898,81.89375 69.7871459,81.3758536 C68.7050163,80.0560361 68.9858805,79.3942347 68.3669662,78.5354942 C67.9755173,77.9925107 66.9467865,77.1153145 66.4733932,76.168528 C66,75.2217415 66,74.7483483 66,73.8015618 C66,73.3281686 66.1386569,73.1894649 66.4733932,72.8547754 C67.1428659,72.1853969 66.6120501,71.2958919 66.9467865,70.9612025 C67.2815228,70.626513 66.9467865,70.014416 66.9467865,68.5942363 L66.9467865,66.7006634 C66.9467865,65.7538769 66.8012654,65.1924377 67.4201797,64.3336972 C68.2030779,63.2477374 69.7871459,61.966731 70.2605391,61.4933378 C70.7339323,61.0199446 70.9641439,60.15648 71.2073256,59.1263716 C71.4248493,58.2051489 70.9898018,57.2077117 71.2073256,56.2860122 C71.4505072,55.2559109 71.4631951,54.3673523 71.6807188,53.4456528 C71.9239004,52.4155515 72.0453258,52.0126948 72.154112,51.5520799 C72.3972937,50.5219786 72.6275053,50.1319002 72.6275053,49.658507 C72.6275053,48.7117205 72.8611248,47.8226923 73.1008985,46.3447543 C73.1767351,45.8775152 73.4655055,44.4384031 73.5742917,43.9777882 C73.8174734,42.9476869 74.047685,42.0842152 74.5210782,41.1374326 C74.9944714,40.1906461 75.2116647,39.8625841 75.4678647,39.2438596 C75.6490332,38.8064424 76.0799148,38.1583656 76.4146511,37.8236799 C76.7493875,37.4889833 76.553308,36.7381859 76.8880444,36.4035002 C77.2227807,36.0688037 76.9991024,35.8581512 77.3614376,34.9833205 C77.6176375,34.365069 77.4726855,33.4911851 78.3082241,33.0897476 C79.1437626,32.6883101 79.4722038,31.8148992 79.7284038,31.1961747 C80.0907389,30.321344 80.0206303,29.7400152 80.201797,29.3026017 C80.4579969,28.6843502 81.0397972,28.3430337 81.1485835,27.882422 C81.3917651,26.852317 82.0953699,26.4622424 82.0953699,25.0420627 L82.0953699,23.1484897 C82.0953699,22.6750965 81.7330347,22.1297475 82.0953699,21.2549168 C82.3515699,20.6366652 82.5687632,19.8348308 82.5687632,19.3614376 L82.5687632,17.4678647 L82.5687632,15.1008985 L82.5687632,13.2073256 C82.5687632,12.7339323 82.2340268,12.1218822 82.5687632,11.7871459 C82.9034526,11.4524095 85.9937637,13.5556492 89.1962684,16.5210782" id="svg_7" stroke="#00AEEF" stroke-width="3" fill="#FFFFFF" fill-rule="evenodd"></path>
</svg>